<?xml version="1.0" encoding="UTF-8"?>
<!DOCTYPE svg PUBLIC "-//W3C//DTD SVG 1.1//EN" "http://www.w3.org/Graphics/SVG/1.1/DTD/svg11.dtd">
<!-- Creator: CorelDRAW X7 -->
<svg xmlns="http://www.w3.org/2000/svg" xml:space="preserve" width="31.2155mm" height="6.121mm" version="1.1" style="shape-rendering:geometricPrecision; text-rendering:geometricPrecision; image-rendering:optimizeQuality; fill-rule:evenodd; clip-rule:evenodd"
viewBox="0 0 3008 590"
 xmlns:xlink="http://www.w3.org/1999/xlink">
 <defs>
  <style type="text/css">
   <![CDATA[
    .fil0 {fill:#FEFEFE;fill-rule:nonzero}
   ]]>
  </style>
 </defs>
 <g id="Слой_x0020_1">
  <metadata id="CorelCorpID_0Corel-Layer"/>
  <path class="fil0" d="M285 84l-108 0 0 358c0,30 -3,54 -11,73 -7,19 -17,34 -29,45 -12,11 -26,19 -42,23 -16,5 -33,7 -50,7 -9,0 -16,0 -23,0 -7,0 -14,-1 -22,-2l0 -84c5,1 10,1 16,1 6,0 11,0 16,0 15,0 27,-4 37,-11 11,-7 16,-22 16,-45l0 -449 292 0 0 588 -92 0 0 -504zm160 -84l92 0 0 588 -92 0 0 -588zm280 354l-28 54 0 180 -93 0 0 -588 93 0 0 256 122 -256 91 0 -128 262 128 326 -95 0 -90 -234zm252 150c5,1 11,1 16,1 6,0 11,0 16,0 8,0 14,-1 21,-2 6,-2 12,-5 17,-10 4,-4 8,-11 11,-19 2,-8 3,-19 3,-32l-134 -442 92 0 102 345 84 -345 92 0 -121 434c-10,40 -21,71 -32,92 -11,22 -22,37 -35,47 -12,9 -25,14 -40,15 -14,1 -30,2 -47,2 -9,0 -16,0 -23,0 -7,0 -14,-1 -22,-2l0 -84zm502 -504c48,0 83,11 105,34 21,22 32,56 32,101l0 21c0,31 -5,55 -14,75 -10,20 -25,34 -46,44 25,9 43,25 54,46 10,22 15,48 15,80l0 48c0,45 -12,80 -35,104 -24,23 -59,35 -105,35l-146 0 0 -588 140 0zm-47 324l0 180 53 0c16,0 27,-4 36,-12 8,-9 12,-24 12,-46l0 -51c0,-27 -5,-46 -14,-56 -9,-10 -25,-15 -46,-15l-41 0zm0 -240l0 155 36 0c17,0 31,-4 41,-13 10,-9 15,-25 15,-49l0 -32c0,-22 -4,-37 -12,-47 -7,-9 -19,-14 -36,-14l-44 0zm546 504l-93 0 -16 -106 -114 0 -16 106 -84 0 94 -588 135 0 94 588zm-211 -186l89 0 -44 -298 -45 298zm346 186l-93 0 0 -588 93 0 0 252 105 0 0 -252 94 0 0 588 -94 0 0 -252 -105 0 0 252zm358 0l-92 0 0 -588 92 0 0 252 105 0 0 -252 95 0 0 588 -95 0 0 -252 -105 0 0 252zm400 -504c-16,0 -28,5 -35,14 -8,10 -12,25 -12,47l0 58c0,23 5,39 15,48 10,9 23,14 41,14l36 0 0 -181 -45 0zm-150 504c4,-11 7,-22 8,-33 2,-11 2,-24 2,-38l0 -91c0,-31 4,-57 13,-79 9,-21 25,-37 48,-46 -40,-19 -60,-59 -60,-119l0 -47c0,-45 11,-79 32,-101 22,-23 57,-34 105,-34l139 0 0 588 -92 0 0 -239 -32 0c-21,0 -37,5 -46,17 -10,11 -14,30 -14,58l0 92c0,12 -1,22 -1,29 0,8 -1,15 -2,20 0,5 -1,9 -3,12 -1,4 -2,7 -3,11l-94 0z"/>
 </g>
</svg>
