<?xml version="1.0" encoding="UTF-8"?>
<!DOCTYPE svg PUBLIC "-//W3C//DTD SVG 1.1//EN" "http://www.w3.org/Graphics/SVG/1.1/DTD/svg11.dtd">
<!-- Creator: CorelDRAW X7 -->
<svg xmlns="http://www.w3.org/2000/svg" xml:space="preserve" width="28.0938mm" height="6.2431mm" version="1.1" style="shape-rendering:geometricPrecision; text-rendering:geometricPrecision; image-rendering:optimizeQuality; fill-rule:evenodd; clip-rule:evenodd"
viewBox="0 0 2654 590"
 xmlns:xlink="http://www.w3.org/1999/xlink">
 <defs>
  <style type="text/css">
   <![CDATA[
    .fil0 {fill:#E31E24;fill-rule:nonzero}
   ]]>
  </style>
 </defs>
 <g id="Слой_x0020_1">
  <metadata id="CorelCorpID_0Corel-Layer"/>
  <path class="fil0" d="M137 7c47,0 81,11 102,33 21,22 32,55 32,99l0 21c0,29 -5,54 -14,73 -9,19 -24,34 -44,43 24,9 42,25 52,46 10,21 15,47 15,78l0 46c0,45 -11,79 -35,102 -23,24 -57,35 -102,35l-143 0 0 -576 137 0zm-46 317l0 177 52 0c15,0 27,-4 35,-12 7,-9 11,-24 11,-45l0 -50c0,-27 -4,-46 -13,-55 -9,-10 -24,-15 -45,-15l-40 0zm0 -235l0 152 35 0c17,0 30,-4 40,-13 10,-9 14,-25 14,-48l0 -32c0,-21 -3,-36 -11,-45 -7,-9 -19,-14 -35,-14l-43 0zm535 494l-91 0 -16 -104 -111 0 -16 104 -83 0 92 -576 133 0 92 576zm-207 -183l88 0 -44 -291 -44 291zm382 -393c45,0 79,12 101,36 23,24 34,59 34,106l0 75c0,47 -11,82 -34,106 -22,25 -56,37 -101,37l-43 0 0 216 -91 0 0 -576 134 0zm-43 82l0 195 43 0c14,0 25,-4 33,-11 7,-8 11,-22 11,-43l0 -87c0,-21 -4,-35 -11,-43 -8,-7 -19,-11 -33,-11l-43 0zm312 494l-93 0 0 -576 81 0 0 345 93 -345 114 0 0 576 -82 0 0 -417 -113 417zm379 -230l-28 53 0 177 -91 0 0 -576 91 0 0 251 120 -251 89 0 -126 257 126 319 -93 0 -88 -230zm305 98c0,20 4,35 13,44 8,8 20,12 34,12 14,0 25,-4 34,-12 9,-9 13,-24 13,-44l0 -312c0,-21 -4,-35 -13,-44 -9,-8 -20,-13 -34,-13 -14,0 -26,5 -34,13 -9,9 -13,23 -13,44l0 312zm-91 -306c0,-47 12,-83 36,-108 23,-25 57,-37 102,-37 44,0 78,12 102,37 24,25 35,61 35,108l0 300c0,47 -11,82 -35,107 -24,25 -58,38 -102,38 -45,0 -79,-13 -102,-38 -24,-25 -36,-60 -36,-107l0 -300zm504 3c0,-26 -4,-43 -12,-52 -9,-9 -20,-14 -35,-14 -14,0 -25,5 -34,13 -8,9 -13,23 -13,44l0 62 -85 0 0 -56c0,-47 11,-83 34,-108 23,-25 56,-37 101,-37 44,0 78,12 101,37 23,25 34,61 34,108l0 15c0,61 -21,101 -63,118 23,10 39,26 49,46 9,21 14,46 14,76l0 45c0,47 -11,82 -34,107 -23,25 -57,38 -101,38 -45,0 -78,-13 -101,-38 -23,-25 -34,-60 -34,-107l0 -73 85 0 0 79c0,20 5,35 13,44 9,8 20,12 34,12 15,0 26,-4 35,-13 8,-9 12,-26 12,-52l0 -45c0,-27 -4,-46 -14,-57 -9,-11 -24,-16 -45,-16l-14 0 0 -83 19 0c17,0 30,-4 40,-13 10,-9 14,-25 14,-48l0 -32zm173 353c5,0 11,1 16,1 6,0 11,0 16,0 7,0 14,-1 20,-3 6,-1 12,-4 16,-9 5,-4 9,-11 11,-19 3,-8 4,-18 4,-31l-132 -433 91 0 99 337 83 -337 90 0 -118 425c-11,39 -21,70 -32,91 -11,21 -22,36 -34,45 -12,9 -25,14 -39,15 -14,1 -30,2 -47,2 -8,0 -16,0 -22,0 -7,0 -14,-1 -22,-2l0 -82z"/>
 </g>
</svg>
