<?xml version="1.0" encoding="UTF-8"?>
<!DOCTYPE svg PUBLIC "-//W3C//DTD SVG 1.1//EN" "http://www.w3.org/Graphics/SVG/1.1/DTD/svg11.dtd">
<!-- Creator: CorelDRAW X7 -->
<svg xmlns="http://www.w3.org/2000/svg" xml:space="preserve" width="30.7994mm" height="13.2735mm" version="1.1" style="shape-rendering:geometricPrecision; text-rendering:geometricPrecision; image-rendering:optimizeQuality; fill-rule:evenodd; clip-rule:evenodd"
viewBox="0 0 524 226"
 xmlns:xlink="http://www.w3.org/1999/xlink">
 <defs>
  <style type="text/css">
   <![CDATA[
    .fil0 {fill:#424242}
    .fil1 {fill:#FEFEFE;fill-rule:nonzero}
   ]]>
  </style>
 </defs>
 <g id="Слой_x0020_1">
  <metadata id="CorelCorpID_0Corel-Layer"/>
  <g id="_742034096">
   <polygon class="fil0" points="35,0 524,0 490,226 0,226 "/>
   <path class="fil1" d="M79 56l5 0c6,0 10,1 13,5 3,3 4,7 4,13l0 10c0,6 -1,11 -4,14 -3,3 -7,4 -13,4l-17 0 0 -74 30 0 0 11 -19 0 0 17 1 0zm5 36c2,0 3,-1 4,-2 1,-1 2,-2 2,-5l0 -11c0,-3 -1,-5 -2,-6 -1,-1 -2,-1 -4,-1l-5 0 0 25 5 0 0 0zm36 -32l16 0 0 10 -16 0 0 22 20 0 0 10 -32 0 0 -74 32 0 0 11 -20 0 0 21 0 0zm48 -14c0,-3 0,-5 -1,-6 -1,-1 -2,-2 -4,-2 -2,0 -4,1 -5,2 -1,1 -1,3 -1,5l0 8 -11 0 0 -7c0,-6 1,-11 4,-14 3,-3 7,-4 13,-4 5,0 10,1 13,4 3,3 4,8 4,14l0 2c0,8 -2,13 -8,15 3,2 5,3 6,6 2,3 2,6 2,10l0 5c0,6 -1,11 -4,14 -3,4 -8,5 -13,5 -6,0 -10,-1 -13,-5 -3,-3 -4,-8 -4,-14l0 -9 11 0 0 11c0,2 0,4 1,5 1,1 3,1 5,1 2,0 3,0 4,-1 1,-1 1,-3 1,-7l0 -5c0,-4 0,-6 -1,-8 -1,-1 -3,-2 -6,-2l-2 0 0 -11 3 0c2,0 4,0 5,-1 1,-1 1,-3 1,-7l0 -4 0 0 0 0zm53 -18c6,0 11,2 13,5 3,3 5,8 5,13l0 10c0,6 -2,11 -5,14 -2,3 -7,4 -13,4l-5 0 0 28 -12 0 0 -74 17 0 0 0 0 0zm-5 11l0 25 5 0c2,0 3,0 4,-1 1,-1 2,-3 2,-6l0 -11c0,-3 -1,-5 -2,-6 -1,-1 -2,-1 -4,-1l-5 0 0 0zm38 47c0,2 1,4 2,5 1,1 2,1 4,1 2,0 4,0 5,-1 1,-1 2,-3 2,-5l0 -41c0,-2 -1,-4 -2,-5 -1,-1 -3,-2 -5,-2 -2,0 -3,1 -4,2 -1,1 -2,3 -2,5l0 41zm-11 -40c0,-6 1,-11 4,-14 3,-3 8,-4 13,-4 6,0 10,1 14,4 3,3 4,8 4,14l0 38c0,6 -1,11 -4,14 -4,4 -8,5 -14,5 -5,0 -10,-1 -13,-5 -3,-3 -4,-8 -4,-14l0 -38zm65 0c0,-3 -1,-5 -2,-6 -1,-1 -3,-2 -4,-2 -2,0 -4,1 -5,2 -1,1 -2,3 -2,5l0 8 -11 0 0 -7c0,-6 2,-11 5,-14 3,-3 7,-4 13,-4 6,0 10,1 13,4 3,3 4,8 4,14l0 2c0,8 -3,13 -8,15 3,2 5,3 6,6 1,3 2,6 2,10l0 5c0,6 -1,11 -4,14 -3,4 -7,5 -13,5 -6,0 -10,-1 -13,-5 -3,-3 -5,-8 -5,-14l0 -9 11 0 0 11c0,2 1,4 2,5 1,1 3,1 5,1 1,0 3,0 4,-1 1,-1 2,-3 2,-7l0 -5c0,-4 -1,-6 -2,-8 -2,-1 -3,-2 -6,-2l-2 0 0 -11 3 0c2,0 3,0 5,-1 1,-1 2,-3 2,-7l0 -4 0 0 0 0zm36 -18c6,0 10,2 13,5 3,3 4,8 4,13l0 10c0,6 -1,11 -4,14 -3,3 -7,4 -13,4l-6 0 0 28 -12 0 0 -74 18 0 0 0 0 0zm-6 11l0 25 6 0c2,0 3,0 4,-1 1,-1 1,-3 1,-6l0 -11c0,-3 0,-5 -1,-6 -1,-1 -2,-1 -4,-1l-6 0 0 0zm29 -11l11 0 0 74 -11 0 0 -74zm42 18c0,-3 -1,-5 -2,-6 -2,-1 -3,-2 -4,-2 -2,0 -4,1 -5,2 -1,1 -2,3 -2,5l0 8 -11 0 0 -7c0,-6 2,-11 5,-14 3,-3 7,-4 13,-4 6,0 10,1 13,4 3,3 4,8 4,14l0 2c0,8 -3,13 -8,15 3,2 5,3 6,6 1,3 2,6 2,10l0 5c0,6 -1,11 -4,14 -3,4 -7,5 -13,5 -6,0 -10,-1 -13,-5 -3,-3 -5,-8 -5,-14l0 -9 11 0 0 11c0,2 1,4 2,5 1,1 3,1 5,1 1,0 2,0 4,-1 1,-1 2,-3 2,-7l0 -5c0,-4 -1,-6 -3,-8 -1,-1 -2,-2 -5,-2l-2 0 0 -11 3 0c2,0 3,0 4,-1 2,-1 3,-3 3,-7l0 -4 0 0 0 0zm18 -18l12 0 0 74 -12 0 0 -74zm38 0c6,0 11,2 13,5 3,2 4,7 4,12l0 3c0,4 0,7 -1,9 -2,3 -3,5 -6,6 3,1 5,3 7,6 1,2 2,6 2,10l0 6c0,5 -2,10 -5,13 -3,3 -7,4 -13,4l-18 0 0 -74 17 0 0 0 0 0zm-5 41l0 23 6 0c2,0 4,-1 5,-2 0,-1 1,-3 1,-6l0 -6c0,-3 -1,-6 -2,-7 -1,-1 -3,-2 -6,-2l-4 0 0 0 0 0zm0 -30l0 19 4 0c2,0 4,0 5,-1 1,-1 2,-3 2,-7l0 -4c0,-2 -1,-4 -1,-5 -1,-2 -3,-2 -5,-2l-5 0 0 0 0 0z"/>
   <path class="fil1" d="M64 127l36 0 0 11 -12 0 0 63 -11 0 0 -63 -13 0 0 -11zm79 74l-12 0 -2 -13 -14 0 -2 13 -11 0 12 -74 17 0 12 74zm-27 -23l12 0 -6 -38 -6 38 0 0zm60 23l-11 0 0 -74 11 0 0 32 14 0 0 -32 11 0 0 74 -11 0 0 -31 -14 0 0 31zm71 0l-11 0 -2 -13 -14 0 -3 13 -10 0 11 -74 18 0 11 74 0 0 0 0zm-26 -23l11 0 -6 -38 -5 38 0 0zm49 -51c6,0 10,2 13,5 3,3 4,8 4,14l0 9c0,6 -1,11 -4,14 -3,3 -7,4 -13,4l-6 0 0 28 -11 0 0 -74 17 0 0 0 0 0zm-6 11l0 25 6 0c2,0 3,0 4,-1 1,-2 2,-4 2,-6l0 -11c0,-3 -1,-5 -2,-6 -1,-1 -2,-1 -4,-1l-6 0 0 0zm44 34l-4 7 0 22 -12 0 0 -74 12 0 0 32 15 -32 12 0 -16 33 16 41 -12 0 -11 -29zm39 12c0,3 0,5 1,6 2,1 3,1 5,1 2,0 3,0 4,-1 2,-1 2,-3 2,-6l0 -40c0,-2 0,-4 -2,-5 -1,-1 -2,-2 -4,-2 -2,0 -3,1 -5,2 -1,1 -1,3 -1,5l0 40zm-12 -39c0,-6 2,-11 5,-14 3,-3 7,-4 13,-4 6,0 10,1 13,4 3,3 4,8 4,14l0 38c0,7 -1,11 -4,14 -3,4 -7,5 -13,5 -6,0 -10,-1 -13,-5 -3,-3 -5,-7 -5,-14l0 -38zm65 1c0,-4 0,-6 -2,-7 -1,-1 -2,-2 -4,-2 -2,0 -3,1 -5,2 -1,1 -1,3 -1,5l0 8 -11 0 0 -7c0,-6 1,-11 4,-14 3,-3 7,-4 13,-4 6,0 10,1 13,4 3,3 5,8 5,14l0 2c0,8 -3,13 -8,15 2,2 5,3 6,6 1,3 2,6 2,10l0 5c0,7 -2,11 -5,14 -3,4 -7,5 -13,5 -6,0 -10,-1 -13,-5 -3,-3 -4,-7 -4,-14l0 -9 11 0 0 10c0,3 0,5 1,6 2,1 3,1 5,1 2,0 3,0 4,-1 2,-1 2,-4 2,-7l0 -6c0,-3 -1,-5 -2,-7 -1,-1 -3,-2 -5,-2l-2 0 0 -11 2 0c2,0 4,0 5,-1 1,-1 2,-4 2,-7l0 -3 0 0 0 0zm22 45c1,0 1,0 2,0 1,0 2,0 2,0 1,0 2,0 3,0 0,-1 1,-1 2,-1 1,-1 1,-2 1,-3 1,-1 1,-3 1,-4l-17 -56 11 0 13 44 11 -44 11 0 -15 55c-1,5 -2,9 -4,11 -1,3 -3,5 -4,6 -2,2 -3,2 -5,2 -2,1 -4,1 -6,1 -1,0 -2,0 -3,0 -1,0 -2,0 -3,-1l0 -10 0 0 0 0z"/>
  </g>
 </g>
</svg>
