<?xml version="1.0" encoding="UTF-8"?>
<!DOCTYPE svg PUBLIC "-//W3C//DTD SVG 1.1//EN" "http://www.w3.org/Graphics/SVG/1.1/DTD/svg11.dtd">
<!-- Creator: CorelDRAW X7 -->
<svg xmlns="http://www.w3.org/2000/svg" xml:space="preserve" width="39.0961mm" height="11.7793mm" version="1.1" style="shape-rendering:geometricPrecision; text-rendering:geometricPrecision; image-rendering:optimizeQuality; fill-rule:evenodd; clip-rule:evenodd"
viewBox="0 0 4371 1317"
 xmlns:xlink="http://www.w3.org/1999/xlink">
 <defs>
  <style type="text/css">
   <![CDATA[
    .str0 {stroke:#AA0A22;stroke-width:22.3608}
    .fil2 {fill:#2B2A29}
    .fil1 {fill:#252221}
    .fil0 {fill:#AA0A22}
    .fil3 {fill:#AA0A22}
   ]]>
  </style>
 </defs>
 <g id="Слой_x0020_1">
  <metadata id="CorelCorpID_0Corel-Layer"/>
  <path class="fil0" d="M650 1047c-3,8 -6,16 -9,24 -7,15 -15,29 -23,43l-1 1c-8,13 -18,26 -28,39l0 0c-4,5 -8,9 -12,13l0 1c-2,1 -3,3 -4,4l-1 0c-4,5 -8,8 -12,12l-1 1c-1,1 -3,3 -4,4l-1 1c-4,3 -8,7 -12,10l-2 1c-1,1 -2,2 -4,3l-1 1c-2,2 -5,4 -8,6l-1 1c-1,1 -2,2 -3,3l-3 1c-1,1 -2,2 -3,3 -1,0 -2,1 -3,1 -2,2 -4,3 -6,4 -1,1 -2,1 -2,2 -2,0 -3,1 -4,2l-3 2c-1,0 -2,1 -3,1 -1,1 -3,2 -4,3 -1,0 -3,1 -5,2 -1,1 -2,1 -3,2 -1,1 -2,1 -3,2 -2,0 -3,1 -4,1l-3 2c-2,1 -3,1 -5,2 -1,1 -2,1 -4,2 -1,0 -2,1 -4,2l-3 1c-1,0 -2,1 -4,2 -1,0 -2,0 -3,1 -2,1 -4,1 -6,2l-2 1c-2,1 -4,1 -5,2l-3 1c-2,0 -3,1 -5,1l-2 1c-2,1 -5,1 -7,2l-2 1c-2,0 -4,1 -6,1l-2 1c-2,0 -4,1 -5,1l-3 0c-2,1 -4,2 -7,2l-2 0c-2,1 -4,1 -5,2l-3 0c-2,0 -4,1 -6,1l-2 0c-2,1 -5,1 -7,1l-2 1c-2,0 -4,0 -6,0l-3 0c-2,1 -4,1 -6,1l-1 0c-3,0 -5,1 -8,1l-2 0c-2,0 -4,0 -6,0l-3 0c-2,0 -5,0 -7,0 -3,0 -6,0 -9,0l-1 0c-2,0 -5,0 -7,0l-2 0 0 0c-2,0 -4,-1 -6,-1l-3 0 -1 0c-32,-1 -63,-7 -91,-19l-4 -3 0 0c-2,0 -3,-1 -4,-1 -1,-1 -3,-1 -4,-2 -1,-1 -3,-1 -4,-2 -1,0 -2,-1 -3,-1 -2,-1 -3,-1 -4,-2 -1,-1 -3,-1 -4,-2 -1,0 -2,-1 -4,-1 -1,-1 -2,-2 -4,-2l-3 -2c-1,-1 -3,-2 -4,-2l-3 -2c-2,-1 -3,-2 -5,-2l-2 -2c-2,-1 -3,-2 -5,-3l-2 -1c-2,-1 -3,-2 -5,-3l-2 -2c-2,-1 -4,-2 -5,-3l-2 -1c-2,-1 -3,-2 -5,-4l-2 -1c-1,-1 -3,-2 -5,-3l-1 -2c-2,-1 -4,-2 -5,-3l-2 -1c-1,-2 -3,-3 -5,-4l-1 -2c-2,-1 -3,-2 -5,-4l-1 -1c-2,-1 -4,-3 -6,-5l0 0c-2,-2 -4,-4 -6,-5l0 -1c-2,-1 -4,-3 -5,-5l-1 -1c-2,-1 -3,-3 -5,-5l-1 0c-1,-2 -3,-4 -5,-6l0 0c-2,-2 -4,-4 -5,-6l-1 0 -15 -11 -52 -79c9,113 180,249 345,249 97,0 178,-35 248,-96l19 -18c67,-76 56,-82 92,-150 74,0 135,-12 192,-33 -4,2 -7,3 -10,4l-3 1c-3,1 -6,2 -9,3l-3 1c-3,1 -7,2 -10,3l-2 0c-3,1 -7,2 -10,3l-2 1c-4,0 -7,1 -11,2l-1 0c-4,1 -8,2 -12,3l-1 0c-4,1 -8,2 -12,2l-1 1c-4,0 -8,1 -12,2l-1 0c-4,0 -8,1 -12,1l0 1c-5,0 -9,0 -13,1l0 0c-5,0 -9,1 -13,1l-1 0c-4,0 -8,1 -12,1l-1 0c-4,0 -8,0 -13,0l0 0c-4,1 -9,1 -13,1 -5,0 -9,0 -14,-1l0 0c-4,0 -8,0 -13,0l0 0c-4,0 -9,-1 -13,-1l-1 0c-4,0 -8,-1 -12,-1l-1 0c-4,-1 -8,-1 -11,-1l-3 -1 0 0z"/>
  <path class="fil1" d="M1459 584l0 -22 154 0c-15,28 2,17 -22,22 -5,1 -38,0 -44,0 -30,0 -59,0 -88,0zm-103 81l293 0c30,0 110,-84 32,-156 -44,-41 -143,-28 -222,-28l0 -22 234 0 0 -80 -337 0 0 286z"/>
  <path class="fil1" d="M4270 795l0 7 51 0c-5,-9 1,-5 -7,-7 -2,0 -13,0 -15,0 -10,0 -20,0 -29,0zm-34 -27l97 0c10,0 37,28 11,52 -15,13 -48,9 -74,9l0 7 0 27 0 0 -34 0 0 -95z"/>
  <path class="fil1" d="M1854 459l154 0 0 22 -154 0 0 -22zm-102 8l0 198 102 0 0 -103 154 0 0 103 103 0 0 -286 -279 0c-41,0 -80,30 -80,88z"/>
  <path class="fil0" d="M4141 459l125 0 0 125 -125 0 0 -125zm-102 206c79,0 275,14 306,-17 38,-38 23,-115 23,-203 0,-45 -34,-66 -80,-66l-249 0 0 286z"/>
  <path class="fil1" d="M2514 665l110 0c28,-43 56,-70 92,-107 1,-1 2,-2 3,-3l10 -12c15,-18 24,-28 42,-40l0 162 102 0 0 -286c-111,0 -94,-12 -147,51l-109 117 0 -168 -103 0 0 286z"/>
  <path class="fil1" d="M2939 863l37 0c9,-14 19,-23 30,-36 1,0 1,0 2,-1l3 -4c5,-6 8,-9 14,-13l0 54 34 0 0 -95c-37,0 -32,-4 -49,16l-37 40 0 -56 -34 0 0 95z"/>
  <path class="fil0" d="M3276 665l0 -143 0 -143 99 0c23,0 41,35 77,80 23,-15 61,-80 88,-80l88 0 0 286 -102 0 0 -169c0,0 -8,7 -12,11 -21,22 -31,42 -62,62 -26,-17 -36,-33 -55,-54 -1,-2 -6,-7 -7,-8 -1,-1 -3,-3 -4,-4 -1,-1 -5,-5 -7,-7l0 169 -103 0z"/>
  <polygon class="fil0" points="3679,665 3995,665 3995,584 3782,584 3782,562 3914,562 3914,481 3782,481 3782,459 3995,459 3995,379 3679,379 "/>
  <polygon class="fil2" points="2664,861 2766,861 2766,835 2697,835 2697,828 2740,828 2740,802 2697,802 2697,795 2766,795 2766,769 2664,769 "/>
  <polygon class="fil2" points="3857,862 3959,862 3959,836 3890,836 3890,829 3932,829 3932,803 3890,803 3890,795 3959,795 3959,769 3857,769 "/>
  <path class="fil1" d="M2155 459l205 0 0 22 -124 0 0 81 124 0 0 22 -205 0 0 81 278 0c15,-21 69,-91 8,-132 10,-15 38,-43 22,-96 -11,-39 -52,-58 -81,-58l-227 0 0 80z"/>
  <path class="fil1" d="M2925 445c0,46 -8,164 13,192 5,8 33,28 45,28l242 0 0 -81 -198 0 0 -125 198 0 0 -80 -227 0c-37,0 -73,26 -73,66z"/>
  <path class="fil1" d="M2832 797l22 0c28,0 0,0 22,-1l0 45 -44 0 0 -44zm-36 44c-15,6 -14,3 -15,22l70 0 74 -1c0,-24 -13,-9 -15,-23 -2,-12 0,-37 0,-72 -138,0 -114,-11 -114,74z"/>
  <path class="fil1" d="M3504 863c53,0 44,0 95,-59l0 59 36 0 0 -96c-40,0 -40,-4 -64,24 -6,7 -7,10 -13,16l-18 19 0 -59 -36 0 0 96z"/>
  <path class="fil1" d="M3357 863c54,0 44,0 95,-59l0 59 37 0 0 -96c-62,0 -40,2 -84,48 -4,4 -11,11 -11,11l0 -59 -37 0 0 96z"/>
  <path class="fil1" d="M2521 863l37 0 0 -59c4,5 3,2 10,12 6,8 8,11 12,17l28 -23 1 53 37 0 0 -96c-47,0 -42,-3 -59,22 -32,-21 -6,-22 -66,-22l0 96z"/>
  <polygon class="fil1" points="3218,863 3254,863 3254,826 3306,826 3306,863 3342,863 3342,767 3306,767 3306,797 3254,797 3254,767 3218,767 "/>
  <polygon class="fil1" points="3987,863 4017,863 4017,826 4068,826 4068,863 4105,863 4105,767 4068,767 4068,797 4017,797 4017,767 3987,767 "/>
  <path class="fil1" d="M3723 863l120 -1 -1 -20 -10 -1 -1 -74 -34 0 0 74c-51,0 -44,5 -44,-74l-30 0 0 96z"/>
  <path class="fil1" d="M3086 804c0,30 23,22 80,22l0 37 37 0 0 -96 -37 0 0 30 -44 0 0 -30 -36 0 0 37z"/>
  <path class="fil1" d="M4119 797c29,-1 17,-1 37,-1l0 67 37 0 0 -66 36 0 0 -30 -110 0 0 30z"/>
  <polygon class="fil1" points="3555,760 3592,760 3592,745 3555,745 "/>
  <path class="fil3 str0" d="M718 11c287,0 520,233 520,520 0,288 -233,521 -520,521 -23,0 -46,-2 -68,-5 12,-35 19,-74 19,-113 0,-190 -153,-343 -342,-343 -44,0 -85,8 -123,23 -4,-27 -7,-55 -7,-83 0,-287 233,-520 521,-520z"/>
 </g>
</svg>
