<?xml version="1.0" encoding="UTF-8"?>
<!DOCTYPE svg PUBLIC "-//W3C//DTD SVG 1.1//EN" "http://www.w3.org/Graphics/SVG/1.1/DTD/svg11.dtd">
<!-- Creator: CorelDRAW X7 -->
<svg xmlns="http://www.w3.org/2000/svg" xml:space="preserve" width="28.5658mm" height="4.7736mm" version="1.1" style="shape-rendering:geometricPrecision; text-rendering:geometricPrecision; image-rendering:optimizeQuality; fill-rule:evenodd; clip-rule:evenodd"
viewBox="0 0 1050 176"
 xmlns:xlink="http://www.w3.org/1999/xlink">
 <defs>
  <style type="text/css">
   <![CDATA[
    .fil0 {fill:#2B2A29;fill-rule:nonzero}
   ]]>
  </style>
 </defs>
 <g id="Слой_x0020_1">
  <metadata id="CorelCorpID_0Corel-Layer"/>
  <path class="fil0" d="M26 134c0,6 2,11 4,13 3,3 6,4 10,4 4,0 8,-1 10,-4 3,-2 4,-7 4,-13l0 -93c0,-6 -1,-10 -4,-13 -2,-2 -6,-3 -10,-3 -4,0 -7,1 -10,3 -2,3 -4,7 -4,13l0 93zm-26 -91c0,-14 3,-24 10,-32 7,-7 17,-11 30,-11 13,0 23,4 30,11 7,8 10,18 10,32l0 89c0,14 -3,25 -10,32 -7,8 -17,12 -30,12 -13,0 -23,-4 -30,-12 -7,-7 -10,-18 -10,-32l0 -89zm121 75l0 16c0,6 2,11 4,13 3,3 6,4 10,4 4,0 8,-1 10,-4 3,-2 4,-7 4,-13l0 -38c0,-6 -1,-10 -4,-13 -2,-2 -6,-4 -10,-4 -4,0 -7,2 -10,4 -2,3 -4,7 -4,13l0 5 -25 0 5 -99 70 0 0 24 -46 0 -2 41c5,-8 13,-12 23,-12 10,0 17,3 22,10 5,7 7,16 7,29l0 38c0,14 -3,25 -10,32 -6,8 -16,12 -29,12 -13,0 -23,-4 -30,-12 -6,-7 -10,-18 -10,-32l0 -14 25 0zm96 16c0,6 1,11 4,13 2,3 6,4 10,4 4,0 7,-1 10,-4 2,-2 4,-7 4,-13l0 -93c0,-6 -2,-10 -4,-13 -3,-2 -6,-3 -10,-3 -4,0 -8,1 -10,3 -3,3 -4,7 -4,13l0 93zm-26 -91c0,-14 3,-24 10,-32 7,-7 17,-11 30,-11 13,0 23,4 30,11 7,8 10,18 10,32l0 89c0,14 -3,25 -10,32 -7,8 -17,12 -30,12 -13,0 -23,-4 -30,-12 -7,-7 -10,-18 -10,-32l0 -89zm158 75l0 16c0,6 2,11 4,13 3,3 6,4 10,4 4,0 8,-1 10,-4 3,-2 4,-7 4,-13l0 -38c0,-6 -1,-10 -4,-13 -2,-2 -6,-4 -10,-4 -4,0 -7,2 -10,4 -2,3 -4,7 -4,13l0 5 -25 0 5 -99 70 0 0 24 -46 0 -2 41c5,-8 13,-12 23,-12 10,0 17,3 22,10 5,7 7,16 7,29l0 38c0,14 -3,25 -10,32 -6,8 -16,12 -29,12 -13,0 -23,-4 -30,-12 -6,-7 -10,-18 -10,-32l0 -14 25 0zm96 16c0,6 2,11 4,13 3,3 6,4 10,4 4,0 8,-1 10,-4 3,-2 4,-7 4,-13l0 -93c0,-6 -1,-10 -4,-13 -2,-2 -6,-3 -10,-3 -4,0 -7,1 -10,3 -2,3 -4,7 -4,13l0 93zm-26 -91c0,-14 3,-24 10,-32 7,-7 17,-11 30,-11 13,0 23,4 30,11 7,8 10,18 10,32l0 89c0,14 -3,25 -10,32 -7,8 -17,12 -30,12 -13,0 -23,-4 -30,-12 -7,-7 -10,-18 -10,-32l0 -89zm159 75l0 16c0,6 1,11 3,13 3,3 6,4 10,4 4,0 8,-1 10,-4 3,-2 4,-7 4,-13l0 -38c0,-6 -1,-10 -4,-13 -2,-2 -6,-4 -10,-4 -4,0 -7,2 -10,4 -2,3 -3,7 -3,13l0 5 -26 0 5 -99 70 0 0 24 -46 0 -2 41c5,-8 13,-12 23,-12 10,0 17,3 22,10 5,7 7,16 7,29l0 38c0,14 -3,25 -10,32 -6,8 -16,12 -29,12 -13,0 -23,-4 -30,-12 -6,-7 -10,-18 -10,-32l0 -14 26 0zm95 0l0 16c0,6 1,11 4,13 2,3 5,4 10,4 4,0 7,-1 10,-4 2,-2 3,-7 3,-13l0 -38c0,-6 -1,-10 -3,-13 -3,-2 -6,-4 -10,-4 -5,0 -8,2 -10,4 -3,3 -4,7 -4,13l0 5 -25 0 5 -99 70 0 0 24 -46 0 -3 41c5,-8 13,-12 23,-12 10,0 18,3 23,10 4,7 7,16 7,29l0 38c0,14 -3,25 -10,32 -7,8 -17,12 -30,12 -13,0 -22,-4 -29,-12 -7,-7 -10,-18 -10,-32l0 -14 25 0zm187 13c0,14 -4,26 -10,33 -7,8 -17,12 -31,12 -13,0 -23,-4 -29,-12 -7,-7 -10,-18 -10,-32l0 -4 25 0 0 6c0,6 1,11 3,13 3,3 6,4 10,4 5,0 9,-1 11,-4 3,-3 4,-9 4,-17l0 -31c-5,10 -13,15 -24,15 -10,0 -18,-4 -23,-10 -4,-7 -7,-17 -7,-29l0 -32c0,-14 4,-24 10,-32 7,-7 17,-11 30,-11 13,0 23,4 30,11 7,8 11,18 11,32l0 88zm-41 -42c5,0 8,-1 10,-4 3,-2 4,-6 4,-13l0 -31c0,-6 -1,-10 -4,-13 -2,-2 -5,-3 -10,-3 -4,0 -7,1 -10,3 -2,3 -3,7 -3,13l0 31c0,7 1,11 3,13 3,3 6,4 10,4zm82 29l0 16c0,6 1,11 4,13 2,3 6,4 10,4 4,0 7,-1 10,-4 2,-2 3,-7 3,-13l0 -38c0,-6 -1,-10 -3,-13 -3,-2 -6,-4 -10,-4 -4,0 -8,2 -10,4 -3,3 -4,7 -4,13l0 5 -25 0 5 -99 70 0 0 24 -46 0 -3 41c5,-8 13,-12 24,-12 9,0 17,3 22,10 4,7 7,16 7,29l0 38c0,14 -3,25 -10,32 -7,8 -17,12 -30,12 -13,0 -22,-4 -29,-12 -7,-7 -10,-18 -10,-32l0 -14 25 0zm95 0l0 16c0,6 2,11 4,13 3,3 6,4 10,4 4,0 8,-1 10,-4 3,-2 4,-7 4,-13l0 -38c0,-6 -1,-10 -4,-13 -2,-2 -6,-4 -10,-4 -4,0 -7,2 -10,4 -2,3 -4,7 -4,13l0 5 -25 0 5 -99 70 0 0 24 -46 0 -2 41c5,-8 12,-12 23,-12 10,0 17,3 22,10 5,7 7,16 7,29l0 38c0,14 -3,25 -10,32 -6,8 -16,12 -29,12 -13,0 -23,-4 -30,-12 -6,-7 -10,-18 -10,-32l0 -14 25 0z"/>
 </g>
</svg>
