<?xml version="1.0" encoding="UTF-8"?>
<!DOCTYPE svg PUBLIC "-//W3C//DTD SVG 1.1//EN" "http://www.w3.org/Graphics/SVG/1.1/DTD/svg11.dtd">
<!-- Creator: CorelDRAW X7 -->
<svg xmlns="http://www.w3.org/2000/svg" xml:space="preserve" width="29.5983mm" height="4.0043mm" version="1.1" style="shape-rendering:geometricPrecision; text-rendering:geometricPrecision; image-rendering:optimizeQuality; fill-rule:evenodd; clip-rule:evenodd"
viewBox="0 0 2787 377"
 xmlns:xlink="http://www.w3.org/1999/xlink">
 <defs>
  <style type="text/css">
   <![CDATA[
    .fil0 {fill:#424242}
    .fil1 {fill:#FEFEFE;fill-rule:nonzero}
   ]]>
  </style>
 </defs>
 <g id="Слой_x0020_1">
  <metadata id="CorelCorpID_0Corel-Layer"/>
  <g id="_811019136">
   <polygon class="fil0" points="185,0 2787,0 2603,377 0,377 "/>
   <path class="fil1" d="M233 167l16 0c17,0 30,4 39,14 8,9 12,22 12,40l0 29c0,18 -4,31 -12,40 -9,9 -22,14 -39,14l-51 0 0 -220 91 0 0 32 -56 0 0 51zm16 106c5,0 10,-2 12,-5 3,-3 5,-8 5,-16l0 -33c0,-8 -2,-13 -5,-16 -2,-3 -7,-5 -12,-5l-16 0 0 75 16 0zm106 -96l48 0 0 31 -48 0 0 65 60 0 0 31 -94 0 0 -220 94 0 0 32 -60 0 0 61zm146 -39c0,-10 -2,-16 -5,-20 -3,-3 -7,-5 -13,-5 -5,0 -10,2 -13,5 -3,3 -5,9 -5,17l0 23 -33 0 0 -21c0,-18 5,-32 14,-41 8,-10 21,-14 38,-14 17,0 30,4 39,14 8,9 13,23 13,41l0 6c0,23 -8,38 -25,45 9,4 15,9 19,17 4,8 6,18 6,29l0 17c0,18 -5,32 -13,41 -9,10 -22,15 -39,15 -17,0 -30,-5 -38,-15 -9,-9 -14,-23 -14,-41l0 -27 33 0 0 30c0,7 2,13 5,16 3,4 8,5 13,5 6,0 10,-1 13,-5 3,-3 5,-10 5,-20l0 -17c0,-10 -2,-17 -5,-22 -4,-4 -10,-6 -18,-6l-5 0 0 -31 7 0c7,0 12,-2 16,-5 3,-4 5,-10 5,-19l0 -12zm156 -54c18,0 31,5 39,14 9,9 13,23 13,40l0 29c0,18 -4,31 -13,41 -8,9 -21,13 -39,13l-16 0 0 83 -35 0 0 -220 51 0zm-16 32l0 74 16 0c6,0 10,-1 13,-4 3,-3 4,-9 4,-17l0 -33c0,-8 -1,-13 -4,-16 -3,-3 -7,-4 -13,-4l-16 0zm115 138c0,7 2,13 5,16 3,4 7,5 13,5 5,0 10,-1 13,-5 3,-3 5,-9 5,-16l0 -119c0,-8 -2,-14 -5,-17 -3,-3 -8,-5 -13,-5 -6,0 -10,2 -13,5 -3,3 -5,9 -5,17l0 119zm-35 -117c0,-18 5,-32 14,-41 9,-10 22,-14 39,-14 17,0 30,4 39,14 9,9 13,23 13,41l0 114c0,18 -4,32 -13,41 -9,10 -22,15 -39,15 -17,0 -30,-5 -39,-15 -9,-9 -14,-23 -14,-41l0 -114zm193 1c0,-10 -2,-16 -5,-20 -3,-3 -8,-5 -13,-5 -6,0 -10,2 -13,5 -3,3 -5,9 -5,17l0 23 -33 0 0 -21c0,-18 5,-32 13,-41 9,-10 22,-14 39,-14 17,0 30,4 38,14 9,9 13,23 13,41l0 6c0,23 -8,38 -24,45 9,4 15,9 19,17 3,8 5,18 5,29l0 17c0,18 -4,32 -13,41 -8,10 -21,15 -38,15 -17,0 -30,-5 -39,-15 -8,-9 -13,-23 -13,-41l0 -27 33 0 0 30c0,7 2,13 5,16 3,4 7,5 13,5 5,0 10,-1 13,-5 3,-3 5,-10 5,-20l0 -17c0,-10 -2,-17 -6,-22 -3,-4 -9,-6 -17,-6l-5 0 0 -31 7 0c6,0 12,-2 15,-5 4,-4 6,-10 6,-19l0 -12zm107 -54c18,0 31,5 39,14 9,9 13,23 13,40l0 29c0,18 -4,31 -13,41 -8,9 -21,13 -39,13l-16 0 0 83 -35 0 0 -220 51 0zm-16 32l0 74 16 0c6,0 10,-1 13,-4 3,-3 4,-9 4,-17l0 -33c0,-8 -1,-13 -4,-16 -3,-3 -7,-4 -13,-4l-16 0zm84 -32l34 0 0 220 -34 0 0 -220zm125 54c0,-10 -2,-16 -5,-20 -4,-3 -8,-5 -13,-5 -6,0 -10,2 -13,5 -4,3 -5,9 -5,17l0 23 -33 0 0 -21c0,-18 4,-32 13,-41 9,-10 22,-14 39,-14 17,0 29,4 38,14 9,9 13,23 13,41l0 6c0,23 -8,38 -24,45 9,4 15,9 19,17 3,8 5,18 5,29l0 17c0,18 -4,32 -13,41 -9,10 -21,15 -38,15 -17,0 -30,-5 -39,-15 -9,-9 -13,-23 -13,-41l0 -27 33 0 0 30c0,7 1,13 5,16 3,4 7,5 13,5 5,0 9,-1 13,-5 3,-3 5,-10 5,-20l0 -17c0,-10 -2,-17 -6,-22 -3,-4 -9,-6 -17,-6l-5 0 0 -31 7 0c6,0 11,-2 15,-5 4,-4 6,-10 6,-19l0 -12zm56 -54l35 0 0 220 -35 0 0 -220zm112 0c18,0 31,4 39,13 8,8 12,21 12,38l0 8c0,11 -1,20 -5,28 -4,7 -9,12 -17,16 9,3 16,9 20,17 4,8 6,18 6,30l0 18c0,17 -5,30 -13,39 -9,9 -22,13 -40,13l-54 0 0 -220 52 0zm-17 121l0 68 19 0c6,0 11,-2 14,-5 3,-3 4,-9 4,-17l0 -19c0,-10 -2,-17 -5,-21 -3,-4 -9,-6 -17,-6l-15 0zm0 -89l0 58 13 0c7,0 12,-2 15,-5 4,-4 6,-10 6,-19l0 -12c0,-8 -2,-14 -4,-17 -3,-4 -8,-5 -14,-5l-16 0zm132 -32l106 0 0 32 -36 0 0 188 -34 0 0 -188 -36 0 0 -32zm234 220l-35 0 -6 -40 -43 0 -6 40 -31 0 35 -220 50 0 36 220zm-79 -70l33 0 -17 -111 -16 111zm178 70l-35 0 0 -220 35 0 0 94 39 0 0 -94 35 0 0 220 -35 0 0 -94 -39 0 0 94zm211 0l-35 0 -6 -40 -42 0 -6 40 -32 0 35 -220 51 0 35 220zm-79 -70l33 0 -16 -111 -17 111zm146 -150c17,0 30,5 38,14 9,9 13,23 13,40l0 29c0,18 -4,31 -13,41 -8,9 -21,13 -38,13l-17 0 0 83 -34 0 0 -220 51 0zm-17 32l0 74 17 0c5,0 9,-1 12,-4 3,-3 5,-9 5,-17l0 -33c0,-8 -2,-13 -5,-16 -3,-3 -7,-4 -12,-4l-17 0zm129 100l-11 21 0 67 -34 0 0 -220 34 0 0 96 46 -96 34 0 -48 98 48 122 -35 0 -34 -88zm116 38c0,7 2,13 5,16 4,4 8,5 13,5 6,0 10,-1 13,-5 4,-3 5,-9 5,-16l0 -119c0,-8 -1,-14 -5,-17 -3,-3 -7,-5 -13,-5 -5,0 -9,2 -13,5 -3,3 -5,9 -5,17l0 119zm-34 -117c0,-18 4,-32 13,-41 9,-10 22,-14 39,-14 17,0 30,4 39,14 9,9 14,23 14,41l0 114c0,18 -5,32 -14,41 -9,10 -22,15 -39,15 -17,0 -30,-5 -39,-15 -9,-9 -13,-23 -13,-41l0 -114zm192 1c0,-10 -1,-16 -5,-20 -3,-3 -7,-5 -13,-5 -5,0 -10,2 -13,5 -3,3 -5,9 -5,17l0 23 -32 0 0 -21c0,-18 4,-32 13,-41 8,-10 21,-14 38,-14 17,0 30,4 39,14 8,9 13,23 13,41l0 6c0,23 -8,38 -24,45 8,4 15,9 18,17 4,8 6,18 6,29l0 17c0,18 -5,32 -13,41 -9,10 -22,15 -39,15 -17,0 -30,-5 -38,-15 -9,-9 -13,-23 -13,-41l0 -27 32 0 0 30c0,7 2,13 5,16 3,4 8,5 13,5 6,0 10,-1 13,-5 4,-3 5,-10 5,-20l0 -17c0,-10 -2,-17 -5,-22 -4,-4 -9,-6 -17,-6l-6 0 0 -31 7 0c7,0 12,-2 16,-5 3,-4 5,-10 5,-19l0 -12zm66 135c2,0 4,0 6,0 2,0 4,0 6,0 3,0 5,0 8,-1 2,-1 4,-2 6,-3 2,-2 3,-4 4,-8 1,-3 2,-7 2,-12l-51 -165 35 0 38 129 31 -129 35 0 -45 162c-4,15 -8,27 -12,35 -4,8 -9,14 -13,17 -5,4 -10,6 -15,6 -6,1 -12,1 -18,1 -3,0 -6,0 -9,0 -2,0 -5,0 -8,-1l0 -31z"/>
  </g>
 </g>
</svg>
