<?xml version="1.0" encoding="UTF-8"?>
<!DOCTYPE svg PUBLIC "-//W3C//DTD SVG 1.1//EN" "http://www.w3.org/Graphics/SVG/1.1/DTD/svg11.dtd">
<!-- Creator: CorelDRAW X7 -->
<svg xmlns="http://www.w3.org/2000/svg" xml:space="preserve" width="119.826mm" height="35.896mm" version="1.1" style="shape-rendering:geometricPrecision; text-rendering:geometricPrecision; image-rendering:optimizeQuality; fill-rule:evenodd; clip-rule:evenodd"
viewBox="0 0 12428 3723"
 xmlns:xlink="http://www.w3.org/1999/xlink">
 <defs>
  <style type="text/css">
   <![CDATA[
    .str0 {stroke:#AA0A22;stroke-width:20.7442}
    .fil2 {fill:#2B2A29}
    .fil1 {fill:#252221}
    .fil0 {fill:#AA0A22}
    .fil3 {fill:#AA0A22}
   ]]>
  </style>
 </defs>
 <g id="Слой_x0020_1">
  <metadata id="CorelCorpID_0Corel-Layer"/>
  <path class="fil0" d="M1849 2956c-8,23 -18,45 -28,67 -19,43 -40,84 -65,124l0 1c-25,39 -52,76 -81,111l-1 1c-11,13 -22,25 -33,38l-2 1c-3,4 -7,8 -11,12l-1 1c-12,12 -23,23 -35,34l-3 3c-3,3 -7,6 -10,9l-3 3c-12,10 -24,20 -36,30l-4 3c-3,3 -7,6 -11,9l-3 3c-8,5 -15,11 -22,16l-4 3c-3,2 -7,5 -10,7l-7 4c-3,3 -6,5 -10,7 -2,2 -5,4 -7,5 -6,4 -11,7 -17,11 -2,2 -5,3 -8,5 -3,2 -6,4 -9,5l-9 6c-3,1 -6,3 -9,5 -4,2 -7,4 -11,6 -4,3 -9,5 -13,7 -3,2 -7,4 -10,5 -3,2 -6,4 -10,5 -3,2 -6,3 -9,5l-9 4c-5,3 -10,5 -15,7 -3,2 -6,3 -10,5 -4,1 -8,3 -11,5l-9 4c-4,1 -7,3 -11,4 -3,1 -6,2 -9,4 -6,2 -12,4 -18,7l-6 2c-5,1 -10,3 -14,5l-8 2c-5,2 -10,3 -14,5l-6 2c-7,2 -14,4 -21,6l-5 1c-5,2 -10,3 -15,4l-7 2c-6,2 -11,3 -16,4l-6 1c-7,2 -14,4 -21,5l-5 1c-5,1 -11,2 -16,3l-7 1c-6,1 -12,2 -18,3l-4 1c-7,1 -14,2 -21,3l-7 1c-5,0 -10,1 -16,2l-7 0c-7,1 -13,2 -20,2l-2 0c-7,1 -15,1 -22,2l-7 0c-5,0 -11,0 -16,1l-7 0c-7,0 -15,0 -22,0 -9,0 -17,0 -25,0l-2 0c-7,0 -14,-1 -21,-1l-5 0 -2 0c-5,-1 -11,-1 -16,-1l-8 -1 -2 0c-91,-4 -179,-21 -259,-53l-12 -9 0 0c-4,-2 -8,-3 -12,-5 -3,-1 -7,-3 -10,-4 -4,-2 -8,-3 -12,-5 -3,-1 -6,-3 -10,-4 -3,-2 -7,-4 -10,-5 -4,-2 -8,-4 -11,-5 -4,-2 -7,-4 -11,-5 -3,-2 -7,-4 -11,-6l-9 -5c-5,-2 -9,-4 -13,-6l-8 -5c-4,-2 -8,-4 -13,-7l-8 -4c-4,-3 -8,-5 -12,-8l-7 -4c-4,-3 -9,-5 -13,-8l-7 -5c-4,-2 -9,-6 -14,-9l-5 -3c-5,-4 -10,-7 -15,-10l-4 -3c-5,-4 -9,-7 -14,-11l-5 -3c-4,-4 -9,-7 -14,-11l-4 -3c-5,-4 -9,-8 -14,-12l-4 -3c-5,-4 -10,-8 -14,-12l-4 -3c-5,-4 -10,-9 -15,-13l-2 -2c-5,-5 -10,-9 -15,-14l-2 -2c-5,-5 -9,-9 -14,-14l-2 -2c-5,-5 -10,-10 -15,-15l-1 -2c-5,-5 -10,-10 -15,-15l-1 -1c-5,-6 -10,-12 -15,-17l0 0 -43 -31 -149 -225c27,320 512,708 980,708 276,0 506,-101 707,-272l53 -51c190,-216 159,-235 261,-427 211,0 385,-34 545,-93 -9,3 -18,7 -28,10l-6 2c-10,3 -19,6 -28,9l-6 2c-10,3 -20,6 -30,9l-5 1c-10,3 -20,6 -30,8l-6 2c-10,2 -20,5 -30,7l-4 1c-11,3 -22,5 -32,7l-5 1c-10,2 -21,4 -32,6l-3 1c-11,2 -22,4 -34,5l-3 1c-11,2 -22,3 -34,5l-2 0c-12,1 -23,3 -35,4l-2 0c-12,1 -24,2 -36,3l-1 0c-12,1 -25,2 -37,3l-1 0c-12,0 -24,1 -37,1l-1 0c-12,1 -25,1 -37,1 -13,0 -26,0 -38,-1l-1 0c-12,0 -24,-1 -37,-1l-1 0c-12,-1 -24,-2 -35,-2l-4 -1c-11,-1 -22,-2 -33,-3l-5 0c-11,-1 -21,-2 -32,-4l-6 -1 0 0z"/>
  <path class="fil1" d="M4147 1639l0 -62 438 0c-42,79 7,47 -62,62 -12,3 -106,0 -126,0 -83,-1 -166,0 -250,0zm-291 229l833 0c85,0 313,-238 90,-443 -125,-115 -405,-78 -632,-78l0 -62 667 0 0 -229 -958 0 0 812z"/>
  <path class="fil1" d="M12140 2239l0 20 146 0c-14,-26 2,-15 -21,-20 -4,-1 -35,0 -42,0 -27,0 -55,0 -83,0zm-97 -77l277 0c28,0 104,80 30,148 -41,38 -135,26 -210,26l0 20 0 77 2 0 -99 0 0 -271z"/>
  <path class="fil1" d="M5273 1285l437 0 0 62 -437 0 0 -62zm-292 21l0 562 292 0 0 -291 437 0 0 291 292 0 0 -812 -792 0c-119,0 -229,87 -229,250z"/>
  <path class="fil0" d="M11775 1285l354 0 0 354 -354 0 0 -354zm-292 583c225,0 784,41 871,-46 108,-108 67,-329 67,-579 0,-128 -99,-187 -229,-187l-709 0 0 812z"/>
  <path class="fil1" d="M7148 1868l313 0c80,-120 160,-197 261,-302 3,-3 7,-7 10,-10l29 -34c42,-50 67,-79 117,-112l0 458 292 0 0 -812c-315,0 -269,-35 -419,144l-311 335 0 -479 -292 0 0 812z"/>
  <path class="fil1" d="M8357 2432l104 0c27,-40 54,-66 87,-101 1,-1 3,-2 4,-3l9 -12c14,-16 23,-26 39,-37l0 153 97 0 0 -271c-104,0 -89,-11 -139,48l-103 112 0 -160 -98 0 0 271z"/>
  <path class="fil0" d="M9316 1868l0 -406 0 -406 281 0c64,0 116,98 219,229 65,-44 172,-229 250,-229l250 0 0 812 -292 0 0 -479c0,0 -20,19 -31,31 -61,64 -90,119 -177,177 -75,-50 -104,-95 -157,-155 -4,-6 -16,-18 -20,-22 -2,-3 -8,-8 -10,-10 -3,-3 -17,-16 -21,-21l0 479 -292 0z"/>
  <polygon class="fil0" points="10462,1868 11358,1868 11358,1639 10754,1639 10754,1577 11129,1577 11129,1347 10754,1347 10754,1285 11358,1285 11358,1056 10462,1056 "/>
  <polygon class="fil2" points="7574,2428 7864,2428 7864,2354 7668,2354 7668,2333 7789,2333 7789,2259 7668,2259 7668,2239 7864,2239 7864,2165 7574,2165 "/>
  <polygon class="fil2" points="10965,2429 11256,2429 11256,2355 11060,2355 11060,2335 11181,2335 11181,2260 11060,2260 11060,2240 11256,2240 11256,2166 10965,2166 "/>
  <path class="fil1" d="M6127 1285l584 0 0 62 -355 0 0 230 355 0 0 62 -584 0 0 229 792 0c40,-60 196,-257 21,-375 28,-41 108,-121 64,-271 -32,-111 -148,-166 -231,-166l-646 0 0 229z"/>
  <path class="fil1" d="M8315 1243c0,130 -22,467 37,547 17,23 97,78 130,78l688 0 0 -229 -563 0 0 -354 563 0 0 -229 -646 0c-106,0 -209,75 -209,187z"/>
  <path class="fil1" d="M8053 2244l63 0c79,0 0,0 62,-3l0 128 -125 0 0 -125zm-104 125c-43,17 -40,9 -42,62l198 0 210 -2c1,-69 -35,-26 -41,-64 -5,-35 0,-106 0,-205 -393,0 -325,-33 -325,209z"/>
  <path class="fil1" d="M9962 2431c152,0 125,1 271,-167l0 167 104 0 0 -271c-116,0 -114,-12 -182,68 -17,20 -22,29 -37,46l-52 53 0 -167 -104 0 0 271z"/>
  <path class="fil1" d="M9545 2431c153,0 125,1 271,-167l0 167 104 0 0 -271c-175,0 -113,4 -239,136 -11,12 -32,31 -32,31l0 -167 -104 0 0 271z"/>
  <path class="fil1" d="M7169 2431l104 0 0 -167c12,14 8,5 29,34 18,23 21,31 34,50l80 -66 3 149 104 0 0 -271c-134,0 -118,-9 -166,63 -92,-62 -20,-63 -188,-63l0 271z"/>
  <polygon class="fil1" points="9149,2431 9253,2431 9253,2327 9399,2327 9399,2431 9503,2431 9503,2160 9399,2160 9399,2244 9253,2244 9253,2160 9149,2160 "/>
  <polygon class="fil1" points="11337,2431 11421,2431 11421,2327 11567,2327 11567,2431 11671,2431 11671,2160 11567,2160 11567,2244 11421,2244 11421,2160 11337,2160 "/>
  <path class="fil1" d="M10587 2431l340 -1 -2 -56 -29 -3 -3 -211 -98 0 0 209c-144,0 -125,15 -125,-209l-83 0 0 271z"/>
  <path class="fil1" d="M8774 2264c0,85 65,63 229,63l0 104 104 0 0 -271 -104 0 0 84 -125 0 0 -84 -104 0 0 104z"/>
  <path class="fil1" d="M11712 2244c82,-2 47,-2 105,-2l0 189 104 0 0 -187 104 0 0 -84 -313 0 0 84z"/>
  <polygon class="fil1" points="10108,2139 10212,2139 10212,2098 10108,2098 "/>
  <path class="fil3 str0" d="M2041 10c817,0 1479,663 1479,1480 0,816 -662,1479 -1479,1479 -66,0 -130,-5 -193,-13 35,-101 55,-210 55,-323 0,-538 -436,-974 -974,-974 -123,0 -241,22 -349,64 -12,-76 -18,-154 -18,-233 0,-817 662,-1480 1479,-1480z"/>
 </g>
</svg>
