<?xml version="1.0" encoding="UTF-8"?>
<!DOCTYPE svg PUBLIC "-//W3C//DTD SVG 1.1//EN" "http://www.w3.org/Graphics/SVG/1.1/DTD/svg11.dtd">
<!-- Creator: CorelDRAW X7 -->
<svg xmlns="http://www.w3.org/2000/svg" xml:space="preserve" width="21.0628mm" height="4.6824mm" version="1.1" style="shape-rendering:geometricPrecision; text-rendering:geometricPrecision; image-rendering:optimizeQuality; fill-rule:evenodd; clip-rule:evenodd"
viewBox="0 0 2106 468"
 xmlns:xlink="http://www.w3.org/1999/xlink">
 <defs>
  <style type="text/css">
   <![CDATA[
    .fil0 {fill:#E31E24;fill-rule:nonzero}
   ]]>
  </style>
 </defs>
 <g id="Слой_x0020_1">
  <metadata id="CorelCorpID_0Corel-Layer"/>
  <path class="fil0" d="M109 6c37,0 64,8 81,26 16,17 25,43 25,78l0 17c0,23 -4,43 -11,58 -7,15 -19,27 -35,34 19,7 33,20 41,37 8,16 12,37 12,61l0 37c0,36 -9,63 -28,81 -18,19 -45,28 -81,28l-113 0 0 -457 109 0 0 0zm-37 251l0 141 41 0c12,0 22,-4 28,-10 6,-7 9,-19 9,-36l0 -39c0,-22 -3,-37 -10,-44 -7,-8 -19,-12 -36,-12l-32 0 0 0zm0 -186l0 120 28 0c14,0 24,-3 32,-10 8,-7 11,-20 11,-38l0 -26c0,-16 -3,-28 -9,-35 -5,-7 -15,-11 -28,-11l-34 0zm425 392l-72 0 -13 -83 -88 0 -13 83 -66 0 73 -457 106 0 73 457zm-164 -146l69 0 -35 -231 -34 231zm303 -311c35,0 62,9 80,28 18,19 27,47 27,84l0 60c0,37 -9,65 -27,84 -18,20 -45,29 -80,29l-34 0 0 172 -73 0 0 -457 107 0 0 0zm-34 65l0 154 34 0c11,0 20,-3 26,-8 5,-7 9,-18 9,-34l0 -70c0,-16 -4,-27 -9,-34 -6,-5 -15,-8 -26,-8l-34 0zm247 392l-74 0 0 -457 65 0 0 273 73 -273 91 0 0 457 -65 0 0 -331 -90 331zm301 -183l-22 42 0 141 -72 0 0 -457 72 0 0 199 95 -199 71 0 -100 203 100 254 -74 0 -70 -183 0 0zm242 78c0,16 3,28 10,35 7,6 16,9 27,9 11,0 20,-3 27,-9 7,-7 11,-19 11,-35l0 -248c0,-16 -4,-27 -11,-35 -7,-6 -16,-10 -27,-10 -11,0 -20,4 -27,10 -7,8 -10,19 -10,35l0 248zm-72 -243c0,-37 9,-66 28,-86 19,-19 46,-29 81,-29 35,0 62,10 81,29 19,20 28,49 28,86l0 238c0,37 -9,65 -28,85 -19,20 -46,30 -81,30 -35,0 -62,-10 -81,-30 -19,-20 -28,-48 -28,-85l0 -238zm400 2c0,-20 -3,-34 -10,-41 -7,-7 -16,-11 -28,-11 -11,0 -19,4 -27,10 -6,8 -10,19 -10,35l0 50 -67 0 0 -45c0,-37 8,-66 27,-86 18,-19 44,-29 80,-29 35,0 62,10 80,29 18,20 27,49 27,86l0 12c0,48 -17,80 -50,94 18,8 31,20 39,36 7,17 11,37 11,60l0 36c0,37 -9,65 -27,85 -18,20 -45,30 -80,30 -36,0 -62,-10 -80,-30 -19,-20 -27,-48 -27,-85l0 -58 67 0 0 63c0,16 4,28 10,35 8,6 16,9 27,9 12,0 21,-3 28,-10 7,-7 10,-21 10,-41l0 -36c0,-21 -3,-36 -11,-45 -7,-9 -19,-13 -36,-13l-11 0 0 -66 15 0c13,0 24,-3 32,-10 8,-7 11,-20 11,-38l0 -26 0 0zm137 281c4,0 9,0 13,0 5,0 8,0 12,0 6,0 12,0 16,-2 5,-1 10,-3 13,-7 4,-3 7,-9 9,-15 2,-7 3,-14 3,-25l-105 -343 72 0 79 267 66 -267 71 0 -93 337c-9,31 -17,55 -26,72 -9,17 -17,29 -27,36 -9,7 -20,11 -31,12 -11,0 -24,1 -37,1 -6,0 -13,0 -17,0 -6,0 -12,-1 -18,-1l0 -65 0 0z"/>
 </g>
</svg>
