<?xml version="1.0" encoding="UTF-8"?>
<!DOCTYPE svg PUBLIC "-//W3C//DTD SVG 1.1//EN" "http://www.w3.org/Graphics/SVG/1.1/DTD/svg11.dtd">
<!-- Creator: CorelDRAW X7 -->
<svg xmlns="http://www.w3.org/2000/svg" xml:space="preserve" width="25.1921mm" height="10.8584mm" version="1.1" style="shape-rendering:geometricPrecision; text-rendering:geometricPrecision; image-rendering:optimizeQuality; fill-rule:evenodd; clip-rule:evenodd"
viewBox="0 0 2144 924"
 xmlns:xlink="http://www.w3.org/1999/xlink">
 <defs>
  <style type="text/css">
   <![CDATA[
    .fil0 {fill:#424242}
    .fil1 {fill:#FEFEFE;fill-rule:nonzero}
   ]]>
  </style>
 </defs>
 <g id="Слой_x0020_1">
  <metadata id="CorelCorpID_0Corel-Layer"/>
  <polygon class="fil0" points="142,0 2144,0 2003,924 0,924 "/>
  <path class="fil1" d="M321 230l22 0c23,0 41,5 53,19 11,12 17,30 17,55l0 40c0,25 -6,43 -17,55 -12,12 -30,19 -53,19l-71 0 0 -302 126 0 0 44 -77 0 0 70zm22 146c7,0 13,-3 16,-7 4,-4 7,-11 7,-22l0 -46c0,-11 -3,-18 -7,-22 -3,-4 -9,-7 -16,-7l-22 0 0 104 22 0zm146 -132l66 0 0 42 -66 0 0 90 82 0 0 42 -129 0 0 -302 129 0 0 44 -82 0 0 84 0 0zm200 -54c0,-14 -2,-22 -6,-28 -5,-4 -10,-6 -18,-6 -7,0 -14,2 -18,6 -4,5 -7,13 -7,24l0 31 -45 0 0 -28c0,-25 6,-44 19,-57 11,-14 29,-19 52,-19 23,0 41,5 54,19 11,13 18,32 18,57l0 8c0,31 -11,52 -35,62 13,5 21,12 26,23 6,11 9,25 9,40l0 23c0,25 -7,44 -18,57 -13,14 -31,20 -54,20 -23,0 -41,-6 -52,-20 -13,-13 -19,-32 -19,-57l0 -37 45 0 0 42c0,9 3,17 7,22 4,5 11,6 18,6 8,0 13,-1 18,-6 4,-5 6,-14 6,-28l0 -23c0,-14 -2,-24 -6,-31 -6,-5 -14,-8 -25,-8l-7 0 0 -43 10 0c9,0 16,-2 22,-6 4,-6 6,-14 6,-27l0 -16 0 0zm215 -74c25,0 43,6 54,19 12,12 18,32 18,55l0 40c0,25 -6,42 -18,56 -11,13 -29,18 -54,18l-22 0 0 114 -48 0 0 -302 70 0 0 0zm-22 44l0 101 22 0c8,0 14,-1 18,-5 4,-4 6,-12 6,-23l0 -46c0,-11 -2,-18 -6,-22 -4,-4 -10,-5 -18,-5l-22 0zm158 190c0,9 3,17 7,22 4,5 10,6 18,6 7,0 14,-1 18,-6 4,-5 7,-13 7,-22l0 -164c0,-11 -3,-19 -7,-24 -4,-4 -11,-6 -18,-6 -8,0 -14,2 -18,6 -4,5 -7,13 -7,24l0 164zm-48 -161c0,-25 7,-44 20,-57 12,-14 30,-19 53,-19 24,0 41,5 54,19 12,13 18,32 18,57l0 156c0,25 -6,44 -18,57 -13,14 -30,20 -54,20 -23,0 -41,-6 -53,-20 -13,-13 -20,-32 -20,-57l0 -156zm266 1c0,-14 -3,-22 -7,-28 -4,-4 -11,-6 -18,-6 -8,0 -14,2 -18,6 -4,5 -7,13 -7,24l0 31 -45 0 0 -28c0,-25 7,-44 18,-57 12,-14 30,-19 53,-19 24,0 42,5 53,19 12,13 18,32 18,57l0 8c0,31 -11,52 -33,62 12,5 20,12 26,23 4,11 7,25 7,40l0 23c0,25 -6,44 -18,57 -11,14 -29,20 -53,20 -23,0 -41,-6 -53,-20 -11,-13 -18,-32 -18,-57l0 -37 45 0 0 42c0,9 3,17 7,22 4,5 10,6 18,6 7,0 14,-1 18,-6 4,-5 7,-14 7,-28l0 -23c0,-14 -3,-24 -8,-31 -5,-5 -13,-8 -24,-8l-7 0 0 -43 10 0c8,0 16,-2 21,-6 5,-6 8,-14 8,-27l0 -16 0 0zm147 -74c25,0 43,6 54,19 12,12 18,32 18,55l0 40c0,25 -6,42 -18,56 -11,13 -29,18 -54,18l-22 0 0 114 -48 0 0 -302 70 0 0 0zm-22 44l0 101 22 0c8,0 14,-1 18,-5 4,-4 6,-12 6,-23l0 -46c0,-11 -2,-18 -6,-22 -4,-4 -10,-5 -18,-5l-22 0zm116 -44l46 0 0 302 -46 0 0 -302zm172 74c0,-14 -3,-22 -7,-28 -6,-4 -11,-6 -18,-6 -8,0 -14,2 -18,6 -5,5 -7,13 -7,24l0 31 -45 0 0 -28c0,-25 5,-44 18,-57 12,-14 30,-19 53,-19 24,0 40,5 53,19 12,13 18,32 18,57l0 8c0,31 -12,52 -34,62 13,5 21,12 27,23 4,11 7,25 7,40l0 23c0,25 -6,44 -18,57 -13,14 -29,20 -53,20 -23,0 -41,-6 -53,-20 -13,-13 -18,-32 -18,-57l0 -37 45 0 0 42c0,9 2,17 7,22 4,5 10,6 18,6 7,0 12,-1 18,-6 4,-5 7,-14 7,-28l0 -23c0,-14 -3,-24 -9,-31 -4,-5 -12,-8 -23,-8l-7 0 0 -43 10 0c8,0 15,-2 20,-6 6,-6 9,-14 9,-27l0 -16 0 0zm77 -74l48 0 0 302 -48 0 0 -302zm154 0c25,0 43,5 54,17 11,12 16,29 16,53l0 11c0,15 -1,27 -7,38 -5,10 -12,17 -23,22 12,5 22,13 27,24 6,11 9,25 9,41l0 25c0,23 -7,41 -18,53 -13,13 -31,18 -55,18l-75 0 0 -302 72 0 0 0zm-23 166l0 94 26 0c8,0 15,-3 19,-7 4,-4 5,-13 5,-24l0 -26c0,-13 -2,-23 -6,-29 -5,-5 -13,-8 -24,-8l-20 0 0 0zm0 -122l0 79 17 0c10,0 17,-2 21,-6 6,-6 8,-14 8,-27l0 -16c0,-11 -2,-19 -5,-23 -4,-6 -11,-7 -19,-7l-22 0 0 0z"/>
  <path class="fil1" d="M263 520l146 0 0 44 -50 0 0 259 -46 0 0 -259 -50 0 0 -44zm322 303l-48 0 -8 -55 -59 0 -9 55 -42 0 48 -303 69 0 49 303zm-109 -96l46 0 -24 -153 -22 153 0 0zm245 96l-48 0 0 -303 48 0 0 130 54 0 0 -130 48 0 0 303 -48 0 0 -129 -54 0 0 129zm291 0l-48 0 -9 -55 -57 0 -9 55 -44 0 48 -303 71 0 48 303 0 0zm-109 -96l45 0 -22 -153 -23 153 0 0zm201 -207c23,0 41,7 52,20 13,12 18,31 18,55l0 39c0,25 -5,43 -18,57 -11,12 -29,18 -52,18l-23 0 0 114 -47 0 0 -303 70 0 0 0zm-23 44l0 102 23 0c7,0 12,-1 16,-5 5,-5 7,-13 7,-24l0 -45c0,-11 -2,-18 -7,-22 -4,-4 -9,-6 -16,-6l-23 0zm177 138l-15 29 0 92 -47 0 0 -303 47 0 0 132 63 -132 47 0 -66 135 66 168 -48 0 -47 -121zm160 52c0,10 2,18 7,22 5,6 11,7 17,7 9,0 14,-1 18,-7 6,-4 7,-12 7,-22l0 -164c0,-11 -1,-19 -7,-23 -4,-4 -9,-7 -18,-7 -6,0 -12,3 -17,7 -5,4 -7,12 -7,23l0 164zm-47 -161c0,-25 5,-44 18,-56 12,-14 30,-19 53,-19 24,0 42,5 54,19 13,12 19,31 19,56l0 157c0,25 -6,44 -19,57 -12,13 -30,20 -54,20 -23,0 -41,-7 -53,-20 -13,-13 -18,-32 -18,-57l0 -157zm264 2c0,-14 -1,-22 -7,-28 -4,-4 -9,-7 -18,-7 -7,0 -13,3 -18,7 -4,4 -6,12 -6,23l0 32 -44 0 0 -29c0,-25 5,-44 17,-56 11,-14 29,-19 53,-19 23,0 41,5 53,19 11,12 18,31 18,56l0 8c0,32 -11,53 -33,62 11,6 21,13 25,24 6,11 8,25 8,40l0 23c0,25 -7,44 -18,57 -12,13 -30,20 -53,20 -24,0 -42,-7 -53,-20 -12,-13 -17,-32 -17,-57l0 -37 44 0 0 41c0,10 2,18 6,22 5,6 11,7 18,7 9,0 14,-1 18,-7 6,-4 7,-14 7,-27l0 -24c0,-13 -3,-23 -7,-30 -5,-5 -12,-8 -23,-8l-8 0 0 -43 9 0c10,0 17,-3 22,-7 4,-5 7,-14 7,-26l0 -16 0 0zm91 185c3,0 5,0 8,0 3,0 6,0 8,0 5,0 7,0 12,-1 2,-1 5,-3 8,-4 3,-3 4,-6 5,-11 2,-4 3,-10 3,-17l-70 -227 48 0 52 178 43 -178 48 0 -62 223c-5,21 -11,37 -16,48 -6,11 -13,20 -18,24 -7,5 -14,8 -21,8 -8,1 -16,1 -25,1 -4,0 -8,0 -12,0 -3,0 -7,0 -11,-1l0 -43 0 0z"/>
 </g>
</svg>
