<?xml version="1.0" encoding="UTF-8"?>
<!DOCTYPE svg PUBLIC "-//W3C//DTD SVG 1.1//EN" "http://www.w3.org/Graphics/SVG/1.1/DTD/svg11.dtd">
<!-- Creator: CorelDRAW X7 -->
<svg xmlns="http://www.w3.org/2000/svg" xml:space="preserve" width="44.9372mm" height="13.5248mm" version="1.1" style="shape-rendering:geometricPrecision; text-rendering:geometricPrecision; image-rendering:optimizeQuality; fill-rule:evenodd; clip-rule:evenodd"
viewBox="0 0 4494 1353"
 xmlns:xlink="http://www.w3.org/1999/xlink">
 <defs>
  <style type="text/css">
   <![CDATA[
    .str0 {stroke:#AA0A22;stroke-width:20.0026}
    .fil1 {fill:#252221}
    .fil2 {fill:#2B2A29}
    .fil0 {fill:#AA0A22}
   ]]>
  </style>
 </defs>
 <g id="Слой_x0020_1">
  <metadata id="CorelCorpID_0Corel-Layer"/>
  <path class="fil0" d="M669 1075c-3,9 -7,17 -11,25 -6,15 -14,30 -23,44l0 1c-9,14 -19,27 -29,40l-1 0c-4,5 -8,9 -12,14l0 0c-1,2 -3,3 -4,5l-1 0c-4,4 -8,8 -12,12l-1 1c-1,1 -3,3 -4,4l-1 1c-4,3 -9,7 -13,11l-2 1c-1,1 -2,2 -4,3l-1 1c-3,2 -5,4 -8,6l-1 1c-1,1 -3,2 -4,2l-2 2c-1,1 -2,2 -4,2 -1,1 -2,2 -2,2 -2,2 -4,3 -6,4 -1,1 -2,1 -3,2 -1,1 -3,1 -4,2l-3 2c-1,0 -2,1 -3,2 -2,1 -3,1 -4,2 -2,1 -3,2 -5,2 -1,1 -2,2 -3,2 -2,1 -3,2 -4,2 -1,1 -2,1 -3,2l-4 1c-1,1 -3,2 -5,3 -1,1 -2,1 -4,2 -1,0 -2,1 -4,1l-3 2c-1,0 -2,1 -4,1 -1,1 -2,1 -3,2 -2,1 -4,1 -7,2l-2 1c-2,0 -3,1 -5,2l-3 1c-1,0 -3,1 -5,1l-2 1c-2,1 -5,2 -8,2l-1 1c-2,0 -4,1 -6,1l-2 1c-2,1 -4,1 -6,1l-2 1c-3,0 -5,1 -8,1l-2 1c-1,0 -4,1 -5,1l-3 0c-2,1 -4,1 -6,1l-2 1c-2,0 -5,0 -8,1l-2 0c-2,0 -4,1 -6,1l-2 0c-3,0 -5,1 -8,1l0 0c-3,0 -6,0 -8,0l-3 0c-2,0 -4,0 -6,1l-2 0c-3,0 -6,0 -8,0 -3,0 -6,0 -9,0l-1 0c-2,0 -5,-1 -7,-1l-2 0 -1 0c-2,0 -4,0 -6,0l-3 0 0 0c-33,-2 -65,-8 -94,-20l-4 -3 0 0c-2,-1 -3,-1 -5,-2 -1,0 -2,-1 -3,-1 -2,-1 -3,-1 -5,-2 -1,0 -2,-1 -3,-1 -1,-1 -3,-2 -4,-2 -1,-1 -3,-2 -4,-2 -1,-1 -2,-1 -4,-2 -1,0 -2,-1 -4,-2l-3 -2c-2,0 -3,-1 -5,-2l-3 -2c-1,0 -3,-1 -4,-2l-3 -2c-2,-1 -3,-1 -5,-3l-2 -1c-2,-1 -3,-2 -5,-3l-2 -2c-2,0 -4,-2 -5,-3l-2 -1c-2,-1 -4,-3 -6,-4l-1 -1c-2,-1 -3,-2 -5,-4l-2 -1c-1,-1 -3,-2 -5,-4l-1 -1c-2,-1 -4,-3 -6,-4l-1 -1c-2,-2 -4,-3 -5,-5l-1 -1c-2,-1 -4,-3 -6,-4l-1 -1c-1,-2 -3,-3 -5,-5l-1 -1c-2,-2 -3,-3 -5,-5l-1 -1c-1,-2 -3,-3 -5,-5l0 -1c-2,-2 -4,-3 -6,-5l0 -1c-2,-2 -4,-4 -6,-6l0 0 -15 -11 -54 -81c10,115 185,256 354,256 100,0 183,-37 256,-99l19 -18c69,-78 58,-85 95,-155 76,0 139,-12 197,-33 -4,1 -7,2 -10,3l-3 1c-3,1 -7,2 -10,3l-2 1c-4,1 -7,2 -11,3l-2 1c-3,1 -7,2 -10,3l-3 0c-3,1 -7,2 -10,3l-2 0c-4,1 -8,2 -11,3l-2 0c-4,1 -8,2 -12,2l-1 1c-4,0 -8,1 -12,1l-1 1c-4,1 -8,1 -13,2l0 0c-5,0 -9,1 -13,1l-1 0c-4,0 -8,1 -13,1l0 0c-4,1 -9,1 -13,1l-1 0c-4,0 -9,1 -13,1l-1 0c-4,0 -9,0 -13,0 -5,0 -9,0 -14,0l0 0c-4,0 -9,-1 -13,-1l-1 0c-4,0 -8,0 -12,0l-2 -1c-4,0 -8,-1 -12,-1l-2 0c-4,0 -7,-1 -11,-1l-2 -1 0 0 0 0z"/>
  <path class="fil1" d="M1500 599l0 -22 158 0c-15,28 3,17 -22,22 -5,1 -39,0 -46,0 -30,0 -60,0 -90,0zm-106 83l302 0c30,0 113,-86 32,-160 -45,-42 -146,-29 -228,-29l0 -22 241 0 0 -83 -347 0 0 294 0 0z"/>
  <path class="fil1" d="M4390 816l0 7 53 0c-5,-9 0,-5 -8,-7 -1,0 -13,0 -15,0 -10,0 -20,0 -30,0zm-35 -28l100 0c10,0 38,29 11,54 -15,13 -49,9 -76,9l0 7 0 28 1 0 -36 0 0 -98z"/>
  <path class="fil1" d="M1907 471l158 0 0 22 -158 0 0 -22zm-106 8l0 203 106 0 0 -105 158 0 0 105 105 0 0 -294 -286 0c-43,0 -83,32 -83,91l0 0z"/>
  <path class="fil0" d="M4258 471l128 0 0 128 -128 0 0 -128zm-106 211c82,0 284,15 315,-17 39,-39 25,-119 25,-209 0,-46 -36,-68 -83,-68l-257 0 0 294z"/>
  <path class="fil1" d="M2585 682l113 0c29,-44 58,-71 94,-109 1,-1 3,-3 4,-4l10 -12c16,-18 25,-29 43,-41l0 166 105 0 0 -294c-114,0 -97,-12 -151,52l-113 121 0 -173 -105 0 0 294 0 0z"/>
  <path class="fil1" d="M3022 886l38 0c9,-15 19,-24 31,-37 0,0 1,0 1,-1l4 -4c5,-6 8,-10 14,-14l0 56 35 0 0 -98c-38,0 -32,-4 -50,17l-38 41 0 -58 -35 0 0 98 0 0z"/>
  <path class="fil0" d="M3369 682l0 -147 0 -147 101 0c24,0 42,36 80,83 23,-16 62,-83 90,-83l90 0 0 294 -105 0 0 -173c0,0 -7,7 -11,11 -23,23 -33,43 -64,64 -28,-18 -38,-34 -57,-56 -2,-2 -6,-7 -7,-8 -1,-1 -3,-3 -4,-4 -1,-1 -6,-6 -8,-7l0 173 -105 0 0 0z"/>
  <polygon class="fil0" points="3783,682 4107,682 4107,599 3889,599 3889,577 4024,577 4024,493 3889,493 3889,471 4107,471 4107,388 3783,388 "/>
  <polygon class="fil2" points="2739,884 2844,884 2844,858 2773,858 2773,850 2817,850 2817,823 2773,823 2773,816 2844,816 2844,789 2739,789 "/>
  <polygon class="fil2" points="3965,885 4070,885 4070,858 3999,858 3999,851 4043,851 4043,824 3999,824 3999,816 4070,816 4070,790 3965,790 "/>
  <path class="fil1" d="M2216 471l211 0 0 22 -129 0 0 84 129 0 0 22 -211 0 0 83 286 0c14,-22 71,-93 8,-136 10,-15 39,-43 23,-98 -12,-40 -54,-60 -84,-60l-233 0 0 83 0 0z"/>
  <path class="fil1" d="M3007 456c0,47 -8,169 13,198 6,8 35,28 47,28l249 0 0 -83 -204 0 0 -128 204 0 0 -83 -234 0c-38,0 -75,27 -75,68l0 0z"/>
  <path class="fil1" d="M2912 818l23 0c28,0 0,0 22,-1l0 46 -45 0 0 -45zm-38 45c-15,6 -14,3 -15,22l72 0 76 0c0,-25 -13,-10 -15,-23 -2,-13 0,-39 0,-75 -142,0 -118,-11 -118,76z"/>
  <path class="fil1" d="M3602 885c55,0 46,1 98,-60l0 60 38 0 0 -98c-42,0 -41,-4 -66,25 -6,7 -8,11 -13,17l-19 19 0 -61 -38 0 0 98z"/>
  <path class="fil1" d="M3452 885c55,0 45,1 98,-60l0 60 37 0 0 -98c-63,0 -41,2 -86,50 -4,4 -12,11 -12,11l0 -61 -37 0 0 98 0 0z"/>
  <path class="fil1" d="M2592 885l38 0 0 -60c4,5 3,2 10,12 7,9 8,12 13,18l29 -23 1 53 37 0 0 -98c-48,0 -42,-3 -60,23 -33,-22 -7,-23 -68,-23l0 98 0 0z"/>
  <polygon class="fil1" points="3308,885 3346,885 3346,848 3399,848 3399,885 3436,885 3436,787 3399,787 3399,818 3346,818 3346,787 3308,787 "/>
  <polygon class="fil1" points="4100,885 4130,885 4130,848 4183,848 4183,885 4220,885 4220,787 4183,787 4183,818 4130,818 4130,787 4100,787 "/>
  <path class="fil1" d="M3828 885l123 0 0 -20 -11 -1 -1 -77 -35 0 0 76c-53,0 -46,5 -46,-76l-30 0 0 98 0 0z"/>
  <path class="fil1" d="M3173 825c0,31 23,23 83,23l0 37 37 0 0 -98 -37 0 0 31 -46 0 0 -31 -37 0 0 38 0 0z"/>
  <path class="fil1" d="M4235 818c30,-1 17,-1 38,-1l0 68 38 0 0 -67 37 0 0 -31 -113 0 0 31z"/>
  <polygon class="fil1" points="3655,780 3693,780 3693,765 3655,765 "/>
  <path class="fil0 str0" d="M738 10c295,0 535,240 535,535 0,295 -240,535 -535,535 -24,0 -47,-2 -70,-5 13,-36 20,-76 20,-116 0,-195 -158,-353 -352,-353 -45,0 -87,8 -126,23 -5,-27 -7,-55 -7,-84 0,-295 240,-535 535,-535l0 0z"/>
 </g>
</svg>
