<?xml version="1.0" encoding="UTF-8"?>
<!DOCTYPE svg PUBLIC "-//W3C//DTD SVG 1.1//EN" "http://www.w3.org/Graphics/SVG/1.1/DTD/svg11.dtd">
<!-- Creator: CorelDRAW X7 -->
<svg xmlns="http://www.w3.org/2000/svg" xml:space="preserve" width="88.9872mm" height="6.6717mm" version="1.1" style="shape-rendering:geometricPrecision; text-rendering:geometricPrecision; image-rendering:optimizeQuality; fill-rule:evenodd; clip-rule:evenodd"
viewBox="0 0 20404 1530"
 xmlns:xlink="http://www.w3.org/1999/xlink">
 <defs>
  <style type="text/css">
   <![CDATA[
    .fil0 {fill:#FEFEFE;fill-rule:nonzero}
   ]]>
  </style>
 </defs>
 <g id="Слой_x0020_1">
  <metadata id="CorelCorpID_0Corel-Layer"/>
  <path class="fil0" d="M322 868l0 180c0,110 -14,195 -41,254 -27,59 -67,88 -120,88 -53,0 -93,-29 -120,-88 -27,-59 -41,-144 -41,-254l0 -706c0,-110 14,-195 41,-254 27,-59 67,-88 120,-88 53,0 93,29 120,88 27,59 41,144 41,254l0 132 -102 0 0 -146c0,-49 -5,-84 -15,-104 -11,-20 -24,-30 -41,-30 -17,0 -31,10 -41,30 -10,20 -15,55 -15,104l0 734c0,49 5,83 15,103 10,19 24,29 41,29 17,0 30,-10 41,-29 10,-20 15,-54 15,-103l0 -194 102 0zm417 506l-109 0 -19 -246 -132 0 -19 246 -99 0 110 -1358 158 0 110 1358zm-246 -431l104 0 -52 -687 -52 687zm525 37l73 -964 150 0 0 1358 -102 0 0 -974 -74 974 -102 0 -81 -960 0 960 -94 0 0 -1358 150 0 80 964zm400 82c0,49 5,84 15,104 10,20 24,30 41,30 17,0 31,-10 41,-30 10,-20 15,-55 15,-104l0 -734c0,-49 -5,-84 -15,-104 -10,-20 -24,-30 -41,-30 -17,0 -31,10 -41,30 -10,20 -15,55 -15,104l0 734zm-108 -720c0,-110 14,-195 42,-254 28,-59 69,-88 122,-88 53,0 93,29 122,88 28,59 42,144 42,254l0 706c0,110 -14,195 -42,254 -29,59 -69,88 -122,88 -53,0 -94,-29 -122,-88 -28,-59 -42,-144 -42,-254l0 -706zm700 -132l-126 0 0 827c0,68 -4,125 -13,169 -8,44 -20,78 -34,103 -14,26 -31,43 -50,54 -18,10 -38,15 -58,15 -10,0 -19,0 -26,0 -8,0 -17,-1 -26,-4l0 -194c6,2 12,2 19,2 6,0 12,0 18,0 17,0 32,-8 44,-25 12,-17 18,-52 18,-105l0 -1036 342 0 0 1358 -108 0 0 -1164zm186 -194l108 0 0 1358 -108 0 0 -1358zm328 817l-33 124 0 417 -108 0 0 -1358 108 0 0 592 143 -592 106 0 -150 605 150 753 -111 0 -105 -541zm294 347c6,2 12,2 19,2 6,0 13,0 19,0 8,0 16,-2 24,-6 7,-3 14,-11 19,-21 6,-10 10,-25 13,-45 3,-19 4,-44 4,-73l-157 -1021 108 0 119 795 98 -795 108 0 -141 1001c-13,93 -25,165 -38,215 -13,50 -26,85 -41,107 -14,21 -30,33 -46,35 -17,3 -35,4 -56,4 -9,0 -18,0 -26,0 -8,0 -17,-1 -26,-4l0 -194zm586 -1164c56,0 97,25 122,77 26,52 38,130 38,235l0 49c0,70 -5,127 -17,172 -11,46 -28,79 -53,101 30,22 51,58 63,108 12,50 18,111 18,184l0 110c0,105 -14,185 -41,240 -28,55 -69,82 -123,82l-170 0 0 -1358 163 0zm-55 747l0 417 62 0c18,0 32,-9 42,-29 9,-19 14,-54 14,-105l0 -118c0,-63 -5,-107 -16,-130 -11,-23 -29,-35 -54,-35l-48 0zm0 -553l0 359 42 0c21,0 37,-11 48,-31 11,-21 17,-58 17,-113l0 -76c0,-49 -4,-84 -13,-106 -9,-22 -23,-33 -42,-33l-52 0zm638 1164l-109 0 -19 -246 -132 0 -19 246 -99 0 110 -1358 158 0 110 1358zm-246 -431l104 0 -52 -687 -52 687zm403 431l-108 0 0 -1358 108 0 0 582 123 0 0 -582 110 0 0 1358 -110 0 0 -582 -123 0 0 582zm419 0l-108 0 0 -1358 108 0 0 582 123 0 0 -582 110 0 0 1358 -110 0 0 -582 -123 0 0 582zm467 -1164c-19,0 -33,11 -42,33 -8,22 -13,57 -13,106l0 134c0,55 6,92 17,113 12,21 28,31 48,31l42 0 0 -417 -52 0zm-175 1164c5,-25 8,-51 9,-76 2,-25 2,-55 2,-89l0 -209c0,-71 5,-132 16,-182 10,-50 28,-85 56,-107 -47,-44 -71,-136 -71,-276l0 -107c0,-105 13,-183 38,-235 25,-52 66,-77 122,-77l163 0 0 1358 -108 0 0 -553 -37 0c-25,0 -43,13 -54,39 -11,26 -17,71 -17,134l0 214c0,27 0,49 0,67 -1,19 -1,33 -2,45 -1,12 -2,21 -4,29 -1,8 -2,16 -4,25l-109 0zm795 -394l74 -964 150 0 0 1358 -102 0 0 -974 -75 974 -102 0 -80 -960 0 960 -94 0 0 -1358 150 0 79 964zm401 82c0,49 5,84 15,104 10,20 24,30 41,30 17,0 30,-10 40,-30 11,-20 16,-55 16,-104l0 -734c0,-49 -5,-84 -16,-104 -10,-20 -23,-30 -40,-30 -17,0 -31,10 -41,30 -10,20 -15,55 -15,104l0 734zm-108 -720c0,-110 14,-195 42,-254 28,-59 69,-88 122,-88 53,0 93,29 121,88 28,59 43,144 43,254l0 706c0,110 -15,195 -43,254 -28,59 -68,88 -121,88 -53,0 -94,-29 -122,-88 -28,-59 -42,-144 -42,-254l0 -706zm478 1032l-111 0 150 -753 -150 -605 106 0 142 588 0 -588 109 0 0 588 142 -588 106 0 -150 605 150 753 -111 0 -105 -541 -32 120 0 421 -109 0 0 -421 -32 -120 -105 541zm651 -786l148 0 0 194 -148 0 0 398 187 0 0 194 -295 0 0 -1358 295 0 0 194 -187 0 0 378zm511 -62l51 0c54,0 94,29 121,86 26,56 40,140 40,250l0 177c0,110 -14,193 -40,250 -27,57 -67,85 -121,85l-159 0 0 -1358 285 0 0 194 -177 0 0 316zm51 654c17,0 30,-9 39,-27 9,-18 14,-52 14,-101l0 -204c0,-49 -5,-82 -14,-101 -9,-18 -22,-27 -39,-27l-51 0 0 460 51 0zm254 0c6,2 12,2 18,2 7,0 13,0 19,0 9,0 17,-2 24,-6 8,-3 14,-11 20,-21 5,-10 9,-25 12,-45 3,-19 5,-44 5,-73l-157 -1021 108 0 119 795 98 -795 108 0 -142 1001c-12,93 -25,165 -37,215 -13,50 -27,85 -41,107 -15,21 -30,33 -47,35 -17,3 -35,4 -55,4 -10,0 -19,0 -27,0 -8,0 -16,-1 -25,-4l0 -194zm393 -1164l334 0 0 194 -113 0 0 1164 -108 0 0 -1164 -113 0 0 -194zm494 1358l-111 0 0 -1358 96 0 0 813 111 -813 135 0 0 1358 -97 0 0 -984 -134 984zm765 -194l88 0 0 -1164 108 0 0 1358 -499 0 0 -1358 107 0 0 1164 88 0 0 -1164 108 0 0 1164zm416 -347l-33 124 0 417 -108 0 0 -1358 108 0 0 592 143 -592 106 0 -150 605 150 753 -111 0 -105 -541zm265 -817l108 0 0 1358 -108 0 0 -1358zm147 1164c6,2 13,2 19,2 7,0 13,0 19,0 17,0 31,-8 43,-25 13,-17 19,-52 19,-105l0 -1036 341 0 0 1164 55 0 0 350 -110 0 0 -156 -276 0 0 156 -110 0 0 -350zm208 -143c0,57 -3,105 -9,143l134 0 0 -970 -125 0 0 827zm635 -827l-125 0 0 827c0,68 -4,125 -13,169 -8,44 -20,78 -34,103 -15,26 -31,43 -50,54 -19,10 -38,15 -58,15 -10,0 -19,0 -27,0 -8,0 -16,-1 -25,-4l0 -194c6,2 12,2 18,2 7,0 13,0 19,0 17,0 32,-8 44,-25 12,-17 18,-52 18,-105l0 -1036 341 0 0 1358 -108 0 0 -1164zm298 1164l-111 0 0 -1358 96 0 0 813 111 -813 135 0 0 1358 -97 0 0 -984 -134 984zm473 -1358c56,0 97,25 122,77 25,52 38,130 38,235l0 49c0,70 -6,127 -17,172 -11,46 -29,79 -53,101 29,22 50,58 62,108 12,50 18,111 18,184l0 110c0,105 -13,185 -41,240 -27,55 -68,82 -122,82l-170 0 0 -1358 163 0zm-55 747l0 417 62 0c18,0 32,-9 41,-29 10,-19 15,-54 15,-105l0 -118c0,-63 -6,-107 -17,-130 -10,-23 -28,-35 -53,-35l-48 0zm0 -553l0 359 42 0c20,0 36,-11 48,-31 11,-21 17,-58 17,-113l0 -76c0,-49 -5,-84 -14,-106 -8,-22 -22,-33 -41,-33l-52 0zm400 1164l-111 0 0 -1358 96 0 0 813 111 -813 136 0 0 1358 -97 0 0 -984 -135 984zm540 -394l73 -964 151 0 0 1358 -102 0 0 -974 -75 974 -102 0 -81 -960 0 960 -94 0 0 -1358 150 0 80 964zm415 200c6,2 12,2 19,2 6,0 12,0 18,0 17,0 32,-8 44,-25 12,-17 18,-52 18,-105l0 -1036 342 0 0 1164 55 0 0 350 -110 0 0 -156 -276 0 0 156 -110 0 0 -350zm207 -143c0,57 -3,105 -9,143l135 0 0 -970 -126 0 0 827zm636 -827l-126 0 0 827c0,68 -4,125 -12,169 -9,44 -20,78 -35,103 -14,26 -31,43 -49,54 -19,10 -38,15 -59,15 -10,0 -18,0 -26,0 -8,0 -17,-1 -26,-4l0 -194c6,2 12,2 19,2 6,0 13,0 19,0 17,0 31,-8 43,-25 12,-17 18,-52 18,-105l0 -1036 342 0 0 1358 -108 0 0 -1164zm342 0c-19,0 -33,11 -41,33 -9,22 -14,57 -14,106l0 134c0,55 6,92 18,113 11,21 27,31 47,31l42 0 0 -417 -52 0zm-175 1164c5,-25 8,-51 10,-76 1,-25 1,-55 1,-89l0 -209c0,-71 6,-132 16,-182 10,-50 29,-85 56,-107 -47,-44 -71,-136 -71,-276l0 -107c0,-105 13,-183 38,-235 25,-52 66,-77 122,-77l163 0 0 1358 -108 0 0 -553 -37 0c-25,0 -43,13 -54,39 -11,26 -17,71 -17,134l0 214c0,27 0,49 0,67 0,19 -1,33 -2,45 -1,12 -2,21 -3,29 -2,8 -3,16 -4,25l-110 0zm729 -1358c56,0 97,25 122,77 25,52 38,130 38,235l0 49c0,70 -6,127 -17,172 -11,46 -29,79 -53,101 30,22 50,58 62,108 13,50 19,111 19,184l0 110c0,105 -14,185 -42,240 -27,55 -68,82 -122,82l-170 0 0 -1358 163 0zm-55 747l0 417 62 0c18,0 32,-9 41,-29 10,-19 15,-54 15,-105l0 -118c0,-63 -6,-107 -17,-130 -10,-23 -28,-35 -53,-35l-48 0zm0 -553l0 359 42 0c20,0 36,-11 48,-31 11,-21 17,-58 17,-113l0 -76c0,-49 -5,-84 -13,-106 -9,-22 -23,-33 -42,-33l-52 0zm638 1164l-109 0 -19 -246 -132 0 -19 246 -99 0 110 -1358 158 0 110 1358zm-247 -431l104 0 -52 -687 -52 687zm599 237l87 0 0 -1164 109 0 0 1358 -499 0 0 -1358 107 0 0 1164 88 0 0 -1164 108 0 0 1164zm373 -118c0,49 5,84 15,104 10,20 24,30 41,30 17,0 30,-10 41,-30 10,-20 15,-55 15,-104l0 -734c0,-49 -5,-84 -15,-104 -11,-20 -24,-30 -41,-30 -17,0 -31,10 -41,30 -10,20 -15,55 -15,104l0 734zm-108 -720c0,-110 14,-195 42,-254 28,-59 69,-88 122,-88 53,0 93,29 121,88 29,59 43,144 43,254l0 706c0,110 -14,195 -43,254 -28,59 -68,88 -121,88 -53,0 -94,-29 -122,-88 -28,-59 -42,-144 -42,-254l0 -706zm504 1032l-108 0 0 -1358 286 0 0 194 -178 0 0 1164zm325 -312c0,49 5,84 15,104 11,20 24,30 41,30 17,0 31,-10 41,-30 10,-20 15,-55 15,-104l0 -734c0,-49 -5,-84 -15,-104 -10,-20 -24,-30 -41,-30 -17,0 -30,10 -41,30 -10,20 -15,55 -15,104l0 734zm-108 -720c0,-110 14,-195 42,-254 29,-59 69,-88 122,-88 53,0 94,29 122,88 28,59 42,144 42,254l0 706c0,110 -14,195 -42,254 -28,59 -69,88 -122,88 -53,0 -93,-29 -122,-88 -28,-59 -42,-144 -42,-254l0 -706zm753 7c0,-60 -5,-101 -15,-123 -11,-21 -24,-32 -41,-32 -17,0 -31,10 -41,30 -10,20 -15,55 -15,104l0 146 -102 0 0 -132c0,-110 13,-195 41,-254 27,-59 67,-88 120,-88 53,0 93,29 120,88 27,59 41,144 41,254l0 35c0,145 -25,238 -76,279 28,23 47,59 59,108 11,48 17,108 17,178l0 106c0,110 -14,195 -41,254 -27,59 -67,88 -120,88 -53,0 -93,-29 -120,-88 -28,-59 -41,-144 -41,-254l0 -171 102 0 0 185c0,49 5,84 15,104 10,20 24,30 41,30 17,0 30,-10 41,-31 10,-21 15,-62 15,-122l0 -107c0,-64 -6,-108 -17,-134 -11,-26 -29,-39 -54,-39l-16 0 0 -194 22 0c20,0 36,-11 48,-31 11,-21 17,-58 17,-113l0 -76zm137 831c6,2 12,2 19,2 6,0 13,0 19,0 17,0 31,-8 43,-25 12,-17 18,-52 18,-105l0 -1036 342 0 0 1164 55 0 0 350 -110 0 0 -156 -276 0 0 156 -110 0 0 -350zm207 -143c0,57 -3,105 -9,143l135 0 0 -970 -126 0 0 827zm431 25c0,49 5,84 15,104 10,20 24,30 41,30 17,0 31,-10 41,-30 10,-20 15,-55 15,-104l0 -734c0,-49 -5,-84 -15,-104 -10,-20 -24,-30 -41,-30 -17,0 -31,10 -41,30 -10,20 -15,55 -15,104l0 734zm-108 -720c0,-110 14,-195 42,-254 28,-59 69,-88 122,-88 53,0 94,29 122,88 28,59 42,144 42,254l0 706c0,110 -14,195 -42,254 -28,59 -69,88 -122,88 -53,0 -94,-29 -122,-88 -28,-59 -42,-144 -42,-254l0 -706zm556 -326c54,0 94,28 121,85 26,57 40,140 40,250l0 177c0,110 -14,194 -40,250 -27,57 -67,86 -121,86l-51 0 0 510 -108 0 0 -1358 159 0zm-51 194l0 460 51 0c17,0 30,-9 39,-27 9,-19 14,-52 14,-101l0 -204c0,-49 -5,-83 -14,-101 -9,-18 -22,-27 -39,-27l-51 0zm359 852c0,49 5,84 15,104 10,20 24,30 41,30 17,0 30,-10 40,-30 10,-20 16,-55 16,-104l0 -734c0,-49 -6,-84 -16,-104 -10,-20 -23,-30 -40,-30 -17,0 -31,10 -41,30 -10,20 -15,55 -15,104l0 734zm-108 -720c0,-110 14,-195 42,-254 28,-59 69,-88 122,-88 53,0 93,29 121,88 28,59 43,144 43,254l0 706c0,110 -15,195 -43,254 -28,59 -68,88 -121,88 -53,0 -94,-29 -122,-88 -28,-59 -42,-144 -42,-254l0 -706zm559 -326c56,0 97,25 122,77 25,52 38,130 38,235l0 49c0,70 -6,127 -17,172 -11,46 -28,79 -53,101 30,22 51,58 63,108 12,50 18,111 18,184l0 110c0,105 -14,185 -41,240 -28,55 -69,82 -123,82l-170 0 0 -1358 163 0zm-55 747l0 417 62 0c18,0 32,-9 42,-29 9,-19 14,-54 14,-105l0 -118c0,-63 -6,-107 -16,-130 -11,-23 -29,-35 -54,-35l-48 0zm0 -553l0 359 42 0c21,0 36,-11 48,-31 11,-21 17,-58 17,-113l0 -76c0,-49 -4,-84 -13,-106 -9,-22 -23,-33 -42,-33l-52 0zm287 -194l104 0 -16 399 -74 0 -14 -399zm335 194c-19,0 -33,11 -41,33 -9,22 -14,57 -14,106l0 134c0,55 6,92 18,113 11,21 27,31 47,31l42 0 0 -417 -52 0zm-175 1164c5,-25 8,-51 9,-76 2,-25 2,-55 2,-89l0 -209c0,-71 5,-132 16,-182 10,-50 29,-85 56,-107 -47,-44 -71,-136 -71,-276l0 -107c0,-105 13,-183 38,-235 25,-52 66,-77 122,-77l163 0 0 1358 -108 0 0 -553 -37 0c-25,0 -43,13 -54,39 -11,26 -17,71 -17,134l0 214c0,27 0,49 0,67 0,19 -1,33 -2,45 -1,12 -2,21 -4,29 -1,8 -2,16 -3,25l-110 0z"/>
 </g>
</svg>
